<svg width="28" height="17" viewBox="0 0 28 17" fill="none" xmlns="http://www.w3.org/2000/svg"><path d="M26.901 1.7h-4.543a1.02 1.02 0 00-.904.545s-1.812 3.36-2.395 4.492c-1.565 3.045-2.58 2.09-2.58.676V2.54c0-.407-.16-.798-.446-1.085a1.52 1.52 0 00-1.078-.45h-3.416a2.72 2.72 0 00-2.418 1.13s1.734-.283 1.734 2.07c0 .584.03 2.263.057 3.672a1.02 1.02 0 01-.636.968 1 1 0 01-1.121-.267 30.014 30.014 0 01-3.45-6.318.962.962 0 00-.87-.56H.705a.698.698 0 00-.58.301.71.71 0 00-.082.651C1.297 6.115 6.697 16.995 12.86 16.995h2.595c.271 0 .532-.109.724-.302.193-.194.3-.456.3-.73v-1.577a1.02 1.02 0 01.608-.931 1.002 1.002 0 011.09.192l3.104 2.937c.279.264.647.41 1.03.41h4.077c1.967 0 1.967-1.373.895-2.437-.755-.748-3.478-3.638-3.478-3.638a1.42 1.42 0 01-.108-1.84c.88-1.166 2.32-3.075 2.93-3.893.835-1.118 2.345-3.486.274-3.486z" fill="#75787B"/></svg>