<svg width="33" height="33" viewBox="0 0 33 33" fill="none" xmlns="http://www.w3.org/2000/svg">
<g clip-path="url(#clip0)">
<path d="M16.5004 23.5396C17.51 23.5396 18.3285 23.2122 18.3285 22.8084C18.3285 22.4045 17.51 22.0771 16.5004 22.0771C15.4907 22.0771 14.6723 22.4045 14.6723 22.8084C14.6723 23.2122 15.4907 23.5396 16.5004 23.5396Z" fill="#192239"/>
<path d="M31.2165 17.8923V11.6264C31.2165 11.1899 31.18 10.7907 31.1273 10.409C31.1185 10.3497 31.1222 10.3022 31.1112 10.2408C31.1003 10.1889 31.0827 10.1348 31.071 10.0836C30.9708 9.541 30.8158 9.05254 30.6096 8.61527C29.0031 4.82755 24.4423 1.25188 19.1818 0.230365C13.5842 -0.854767 7.62389 2.04672 6.21479 5.64432C3.53993 6.43258 1.78423 8.13048 1.78423 11.6264V17.8952C1.15756 18.7164 0.778778 19.7554 0.778778 20.8888C0.778778 23.0613 2.15862 24.8981 4.04302 25.4889C6.42758 30.0539 11.2135 33 16.523 33C21.8384 33 26.6295 30.0466 29.0133 25.4721C30.8699 24.8637 32.2227 23.0401 32.2227 20.8881C32.222 19.7562 31.8432 18.7134 31.2165 17.8923ZM27.6576 22.7622C27.4455 22.7622 27.2452 22.7139 27.0594 22.6284C25.5684 26.9558 21.4209 30.0744 16.5252 30.0744C11.6238 30.0744 7.4696 26.9506 5.98445 22.616C5.78702 22.7103 5.57277 22.7622 5.34535 22.7622C4.43569 22.7622 3.70592 21.9242 3.70592 20.8881C3.70592 19.8519 4.43569 19.0147 5.34535 19.0147C5.36144 19.0147 5.37826 19.0191 5.39581 19.0205C5.40751 17.5581 5.71682 15.2474 6.25721 13.853C6.96797 14.846 8.05459 15.7747 9.6538 15.7747C9.6538 15.7747 9.6538 15.7747 9.65526 15.7747C9.72985 15.7747 9.80444 15.7725 9.88122 15.7681C10.0297 15.76 10.1584 15.6628 10.2066 15.5231C10.2205 15.4844 11.555 11.7603 15.065 11.4027C15.2127 12.1281 15.4364 14.1009 13.8474 15.2928C13.7297 15.3805 13.6763 15.5304 13.7114 15.6737C13.7465 15.8171 13.8657 15.9238 14.0112 15.9458C14.0412 15.9509 14.7681 16.0576 15.851 16.0576C17.6967 16.0576 21.0501 15.722 23.2358 13.5269C23.6021 13.8954 24.2464 14.8014 23.9451 16.432C23.9166 16.5841 23.9882 16.7377 24.1213 16.8145C24.1784 16.8474 24.2413 16.862 24.3041 16.862C24.389 16.862 24.4731 16.832 24.5418 16.7742C24.62 16.707 25.9779 15.5348 26.9351 14.2369C27.3863 15.6438 27.6459 17.6817 27.6539 19.011C27.6561 19.011 27.6576 19.011 27.6591 19.011C28.5687 19.011 29.2985 19.849 29.2985 20.8844C29.2985 21.9198 28.5673 22.7622 27.6576 22.7622Z" fill="#192239"/>
<path d="M11.5338 19.9704C12.4425 19.9704 13.1791 19.2338 13.1791 18.3252C13.1791 17.4165 12.4425 16.6799 11.5338 16.6799C10.6251 16.6799 9.88852 17.4165 9.88852 18.3252C9.88852 19.2338 10.6251 19.9704 11.5338 19.9704Z" fill="#192239"/>
<path d="M21.4669 19.9704C22.3756 19.9704 23.1122 19.2338 23.1122 18.3252C23.1122 17.4165 22.3756 16.6799 21.4669 16.6799C20.5583 16.6799 19.8217 17.4165 19.8217 18.3252C19.8217 19.2338 20.5583 19.9704 21.4669 19.9704Z" fill="#192239"/>
</g>
<defs>
<clipPath id="clip0">
<rect width="33" height="33" fill="white"/>
</clipPath>
</defs>
</svg>
