<svg width="72" height="72" viewBox="0 0 72 72" fill="none" xmlns="http://www.w3.org/2000/svg">
<g clip-path="url(#clip0)">
<path d="M36.0703 55.7602C39.9536 55.7602 43.1016 52.6123 43.1016 48.7292C43.1016 44.8461 39.9536 41.6982 36.0703 41.6982C32.1871 41.6982 29.0391 44.8461 29.0391 48.7292C29.0391 52.6123 32.1871 55.7602 36.0703 55.7602Z" fill="#FF9605"/>
<path d="M69.8906 0H2.10938C0.944437 0 0 0.944297 0 2.10923V52.7317C0 53.8966 0.944437 54.8409 2.10938 54.8409H26.6332C21.7977 47.4017 27.1617 37.4791 36.0703 37.4791C44.9789 37.4791 50.3429 47.4016 45.5074 54.8409H69.8906C71.0556 54.8409 72 53.8966 72 52.7317V2.10923C72 0.944297 71.0556 0 69.8906 0V0ZM27.5625 8.5777H44.4375C45.6024 8.5777 46.5469 9.522 46.5469 10.6869C46.5469 11.8519 45.6024 12.7962 44.4375 12.7962H27.5625C26.3976 12.7962 25.4531 11.8519 25.4531 10.6869C25.4531 9.522 26.3976 8.5777 27.5625 8.5777ZM57.0938 33.8889H14.9062C13.7413 33.8889 12.7969 32.9446 12.7969 31.7797C12.7969 30.6148 13.7413 29.6705 14.9062 29.6705H57.0938C58.2587 29.6705 59.2031 30.6148 59.2031 31.7797C59.2031 32.9446 58.2587 33.8889 57.0938 33.8889ZM57.0938 25.4519H14.9062C13.7413 25.4519 12.7969 24.5076 12.7969 23.3426C12.7969 22.1777 13.7413 21.2334 14.9062 21.2334H57.0938C58.2587 21.2334 59.2031 22.1777 59.2031 23.3426C59.2031 24.5076 58.2587 25.4519 57.0938 25.4519Z" fill="#FF9605"/>
<path d="M27.6678 56.1984V69.8876C27.6678 71.56 29.5353 72.5785 30.9427 71.6455L36.1406 68.1996L41.3386 71.6455C42.7244 72.5643 44.6134 71.5797 44.6134 69.8876V56.0361C40.1696 61.2236 32.2137 61.3061 27.6678 56.1984Z" fill="#FF9605"/>
</g>
<defs>
<clipPath id="clip0">
<rect width="72" height="72" fill="white"/>
</clipPath>
</defs>
</svg>
