<svg width="45" height="45" viewBox="0 0 45 45" fill="none" xmlns="http://www.w3.org/2000/svg">
<path d="M43.9014 20.2237C42.6445 8.42003 32.0273 -0.175674 20.2148 1.08995C13.7988 1.7755 8.08594 5.25597 4.52637 10.6437C3.98145 11.4698 4.20996 12.586 5.03614 13.131C5.86231 13.6759 6.97852 13.4474 7.52344 12.6212C10.4941 8.12999 15.2578 5.2296 20.6016 4.6671C30.4365 3.6212 39.2871 10.7667 40.333 20.6017C40.8428 25.3653 39.4629 30.0411 36.4482 33.7765C33.4336 37.503 29.1533 39.8409 24.3897 40.3419C17.8857 41.045 11.5049 38.0919 7.78711 32.7833L11.1006 33.4952C12.0762 33.6974 13.0254 33.0909 13.2363 32.1153C13.4473 31.1485 12.832 30.1905 11.8564 29.9796L4.69336 28.4415C3.72657 28.2306 2.76856 28.8458 2.55762 29.8214L1.01953 36.9845C0.808597 37.9513 1.43262 38.8917 2.39942 39.1202C3.48926 39.3751 4.35059 38.5841 4.53516 37.7403L5.08887 35.1564C9.14063 40.7198 15.6533 44.0333 22.5176 44.0333C23.2647 44.0333 24.0205 43.9982 24.7764 43.9103C30.498 43.3038 35.6397 40.5001 39.252 36.0265C42.8555 31.5616 44.5078 25.9454 43.9014 20.2237Z" fill="white"/>
<path d="M23.8887 12.3311C22.8955 12.3311 22.0957 13.1309 22.0957 14.124V22.5C22.0957 22.9746 22.2891 23.4316 22.623 23.7656L30.999 32.1416C31.834 33.082 33.1875 32.4932 33.5391 32.1416C34.2422 31.4385 34.2422 30.3047 33.5391 29.6016L25.6904 21.7529V14.124C25.6816 13.1396 24.8818 12.3311 23.8887 12.3311Z" fill="white"/>
</svg>
