<svg width="48" height="48" viewBox="0 0 48 48" fill="none" xmlns="http://www.w3.org/2000/svg">
<path d="M24 0C37.2543 0 48 10.7457 48 24C48 37.2543 37.2543 48 24 48C10.7457 48 0 37.2543 0 24C0 10.7457 10.7457 0 24 0ZM17.1062 33.4617C18.1531 34.7358 19.5161 35.5951 21.1062 36.0296C21.7975 36.2173 22.1136 36.5827 22.0741 37.3037C22.0444 38.0148 22.0741 38.716 22.084 39.4272C22.084 40.0593 22.4099 40.3951 23.0321 40.4148C23.437 40.4247 23.842 40.4346 24.2469 40.4346C24.6025 40.4346 24.958 40.4346 25.3136 40.4247C25.9852 40.4148 26.3012 40.0296 26.3012 39.3778C26.3111 38.8642 26.3111 38.3407 26.3111 37.8272C26.321 36.6815 26.3605 36.642 27.4568 36.4642C28.8593 36.237 30.242 35.921 31.5259 35.2988C32.5333 34.8049 32.642 34.558 32.3556 33.4914C32.1383 32.7012 31.921 31.9111 31.6741 31.1309C31.4963 30.558 31.3284 30.3012 31.0222 30.3012C30.8444 30.3012 30.6173 30.3901 30.3111 30.5481C28.8889 31.2889 27.3778 31.7037 25.7877 31.9012C25.521 31.9309 25.2543 31.9506 24.9877 31.9506C24.2469 31.9506 23.5259 31.8123 22.8247 31.5062C21.0568 30.7358 20.7802 28.6914 22.2716 27.4667C22.7753 27.0519 23.358 26.7457 23.9605 26.479C25.5111 25.7975 27.121 25.284 28.5827 24.4049C30.9531 22.9827 32.4543 21.037 32.2765 18.1531C32.079 14.8938 30.2321 12.8593 27.2395 11.7728C26.0049 11.3284 25.9951 11.3383 25.9951 10.0543C25.9951 9.61975 26.0049 9.18519 25.9852 8.74074C25.9556 7.77284 25.7975 7.60494 24.8296 7.57531C24.721 7.57531 24.6025 7.57531 24.4938 7.57531C24.3062 7.57531 24.1185 7.57531 23.9309 7.57531C23.8519 7.57531 23.7728 7.57531 23.7037 7.57531C21.8667 7.57531 21.8667 7.65432 21.8568 9.63951C21.8469 11.1012 21.8469 11.1012 20.3951 11.3284C19.279 11.5062 18.2222 11.8321 17.1951 12.2864C16.6321 12.5333 16.4148 12.9284 16.5926 13.5309C16.8494 14.4198 17.0963 15.3185 17.3728 16.1975C17.5506 16.7309 17.7185 16.9778 18.0346 16.9778C18.2123 16.9778 18.4296 16.9086 18.7062 16.7704C20.1284 16.079 21.6198 15.7432 23.1802 15.7432C23.3778 15.7432 23.5852 15.7531 23.7827 15.763C24.2469 15.7926 24.7012 15.8519 25.1358 16.0395C26.6765 16.7111 26.9235 18.4099 25.6099 19.4568C24.9481 19.9901 24.1877 20.3654 23.4074 20.6914C22.0444 21.2543 20.6815 21.7975 19.3877 22.5086C15.3185 24.7802 14.2123 29.9457 17.1062 33.4617Z" fill="white"/>
</svg>
