<svg width="40" height="40" viewBox="0 0 40 40" fill="none" xmlns="http://www.w3.org/2000/svg">
<path d="M17.9556 19.1277C17.9556 19.8426 17.4098 20.3019 16.4885 20.3019H15.7633V18.0477C15.8975 18.0232 16.1517 17.9871 16.5981 17.9871C17.4459 18.0013 17.9556 18.3768 17.9556 19.1277ZM39.9981 20C39.9981 21.551 39.3917 23.0103 38.2988 24.1058L35.842 26.5626V30.0348C35.842 33.2335 33.2356 35.8413 30.0356 35.8413H26.5633L24.1091 38.2981C23.0098 39.3948 21.5517 40 19.9994 40C18.4472 40 16.9891 39.3948 15.891 38.2968L13.4381 35.8452H9.96459C8.41234 35.8452 6.95556 35.24 5.8575 34.1458C4.75943 33.0452 4.15814 31.5923 4.15814 30.0387V26.5626L1.70137 24.1097C0.604595 23.0116 0.00201416 21.5548 0.00201416 20.0026C0.00201416 18.4503 0.608466 16.9923 1.70137 15.8968L4.15814 13.4413V9.96774C4.15814 6.76645 6.76459 4.16129 9.96459 4.16129H13.4369L15.8936 1.70323C16.9891 0.606452 18.4459 0 19.9994 0C21.553 0 23.0098 0.605161 24.1078 1.70323L26.5607 4.15613H30.0343C31.5839 4.15613 33.0433 4.76 34.1401 5.85548C35.2394 6.95484 35.8407 8.41161 35.8407 9.96258V13.4361L38.2975 15.8929C39.3917 16.9897 39.9981 18.4477 39.9981 20ZM12.5452 16.6813H7.55685V24.8413H9.40976V21.56H12.3401V20.0581H9.40976V18.1935H12.5478V16.68L12.5452 16.6813ZM20.0975 24.8413C19.9401 24.5265 19.6872 23.4632 19.4317 22.5419C19.2252 21.7923 18.9117 21.2452 18.3401 21.0155V20.9806C19.042 20.7265 19.7814 20.0129 19.7814 18.9703C19.7814 18.2194 19.5143 17.6503 19.0304 17.2632C18.4498 16.8039 17.602 16.6206 16.3904 16.6206C15.4085 16.6206 14.5259 16.6942 13.9323 16.791V24.8413H15.7607V21.6335H16.3194C17.0704 21.6465 17.4214 21.9252 17.6381 22.9432C17.8807 23.9471 18.0743 24.6142 18.2059 24.8439L20.0975 24.8413ZM26.3168 23.329H22.9594V21.391H25.9633V19.889H22.9594V18.1935H26.1478V16.68H21.1091V24.84H26.3168V23.329ZM32.7788 23.329H29.4239V21.391H32.4265V19.889H29.4239V18.1935H32.6098V16.68H27.5736V24.84H32.7788V23.329Z" fill="#0C121E"/>
</svg>
