<svg width="37" height="37" viewBox="0 0 37 37" fill="none" xmlns="http://www.w3.org/2000/svg">
<g clip-path="url(#clip0)">
<path d="M31.5815 5.41851C28.0873 1.92435 23.4414 0 18.5 0C13.5586 0 8.91267 1.92435 5.41851 5.41851C1.92435 8.91267 0 13.5586 0 18.5C0 23.4414 1.92435 28.0873 5.41851 31.5815C8.91267 35.0756 13.5586 37 18.5 37C23.4414 37 28.0873 35.0756 31.5815 31.5815C35.0756 28.0873 37 23.4414 37 18.5C37 13.5586 35.0756 8.91267 31.5815 5.41851ZM6.2905 7.66552C6.9996 8.30998 8.13101 9.20004 9.68867 10.0139C9.07357 12.2891 8.71281 14.8026 8.63461 17.416H2.20495C2.45026 13.6878 3.95231 10.2976 6.2905 7.66552ZM26.6423 7.90462C26.3569 7.12833 26.0391 6.3893 25.689 5.69628C25.2024 4.73283 24.6671 3.88428 24.0932 3.15485C25.9659 3.83939 27.6791 4.85789 29.1609 6.13721C28.6813 6.56234 27.9792 7.11591 27.0587 7.66524C26.9209 7.74738 26.782 7.82699 26.6423 7.90462ZM17.416 9.90124C15.6176 9.79877 13.9162 9.43913 12.3281 8.82657C12.6005 8.0658 12.907 7.34541 13.2461 6.67384C14.4164 4.35767 15.8928 2.84094 17.416 2.34553V9.90124ZM17.416 12.072V17.416H10.8034C10.8763 15.1171 11.1803 12.9116 11.6935 10.9076C13.2929 11.5055 15.2001 11.9583 17.416 12.072ZM17.416 19.584V24.928C15.2001 25.0417 13.2929 25.4945 11.6935 26.0924C11.1803 24.0884 10.8763 21.8829 10.8034 19.584H17.416ZM17.416 27.0993V34.6545C15.8928 34.1593 14.4164 32.6423 13.2461 30.3262C12.9073 29.6557 12.6016 28.9367 12.3295 28.1774C13.7406 27.6351 15.4358 27.2142 17.416 27.0993ZM19.584 27.0988C21.3824 27.2012 23.0838 27.5609 24.6719 28.1734C24.3995 28.9342 24.093 29.6546 23.7537 30.3262C22.5836 32.6423 21.1069 34.1593 19.584 34.6545V27.0988ZM19.584 24.928V19.584H26.1966C26.1237 21.8829 25.8197 24.0884 25.3065 26.0924C23.7068 25.4945 21.7999 25.0417 19.584 24.928ZM19.584 17.416V12.072C21.7999 11.9583 23.7068 11.5055 25.3065 10.9076C25.8197 12.9116 26.1237 15.1171 26.1966 17.416H19.584ZM19.584 9.90124V2.34553C21.1072 2.84066 22.5836 4.35767 23.7537 6.67384C24.093 7.34541 24.3995 8.0658 24.6719 8.82657C23.0838 9.43913 21.3824 9.79877 19.584 9.90124ZM11.311 5.69628C10.9609 6.3893 10.6431 7.12833 10.3577 7.90462C10.218 7.82699 10.0791 7.74738 9.94132 7.66524C9.02078 7.11591 8.31902 6.56234 7.83913 6.13721C9.32085 4.85789 11.0343 3.83939 12.9068 3.15485C12.3326 3.88428 11.7976 4.73283 11.311 5.69628ZM8.63461 19.584C8.71309 22.1974 9.07357 24.7106 9.68867 26.9861C8.13101 27.8 6.9996 28.69 6.2905 29.3345C3.95231 26.7024 2.45026 23.3122 2.20495 19.584H8.63461ZM10.3577 29.0954C10.6431 29.8717 10.9609 30.6107 11.311 31.3037C11.7976 32.2672 12.3326 33.1157 12.9068 33.8452C11.0335 33.1603 9.31973 32.1415 7.83772 30.8614C8.38451 30.3767 9.22431 29.7235 10.3577 29.0954ZM25.689 31.3037C26.0391 30.6107 26.3569 29.8717 26.6423 29.0954C26.782 29.1733 26.9209 29.2526 27.0587 29.3348C27.9795 29.8844 28.6815 30.4379 29.1609 30.8628C27.6791 32.1421 25.9659 33.1606 24.0932 33.8454C24.6671 33.1157 25.2021 32.2672 25.689 31.3037ZM30.7095 29.3345C30.0004 28.69 28.869 27.8 27.3113 26.9861C27.9264 24.7106 28.2872 22.1974 28.3654 19.584H34.7951C34.5497 23.3122 33.0477 26.7024 30.7095 29.3345ZM28.3654 17.416C28.2869 14.8026 27.9264 12.2894 27.3113 10.0139C28.869 9.20004 30.0004 8.30998 30.7095 7.66552C33.0477 10.2976 34.5497 13.6878 34.7951 17.416H28.3654Z" fill="white"/>
</g>
<defs>
<clipPath id="clip0">
<rect width="37" height="37" fill="white"/>
</clipPath>
</defs>
</svg>
