<svg width="46" height="46" viewBox="0 0 46 46" fill="none" xmlns="http://www.w3.org/2000/svg">
<g clip-path="url(#clip0)">
<path d="M14.0897 14.4305C14.2495 15.1653 14.4944 15.641 14.7802 15.9374C15.46 20.6695 19.7075 24.7022 23.119 24.5336C27.4588 24.3206 30.5348 19.6436 31.2253 15.9374C31.511 15.6428 31.7861 15.0127 31.9512 14.2725C32.1358 13.4223 32.3346 12.1408 31.8234 11.4627C31.7932 11.4272 31.598 11.248 31.5643 11.2178C32.0524 9.45703 33.1245 6.31534 30.4549 3.49137C29.0083 1.96135 26.9991 1.19279 25.1833 0.585755C19.8229 -1.20518 16.0387 1.30639 14.2921 5.48288C14.1661 5.7793 13.3514 7.65544 14.3382 11.2178C14.2424 11.2817 14.1554 11.3633 14.0826 11.4627C13.5697 12.139 13.9034 13.5803 14.0897 14.4305Z" fill="#192239"/>
<path d="M41.8129 40.4551C41.6638 37.1981 41.4792 32.0365 38.6339 27.8138C38.6339 27.8138 37.8228 26.708 35.8987 25.9732C35.8987 25.9732 31.7205 24.7005 29.7964 23.325L28.9178 23.9267L29.0154 29.6385L23.7402 43.7211C23.6248 44.0299 23.3302 44.234 23.0018 44.234C22.6735 44.234 22.3788 44.0299 22.2634 43.7211L16.99 29.6385C16.99 29.6385 17.0876 23.9444 17.0859 23.9267C17.0983 23.9746 16.2055 23.325 16.2055 23.325C14.285 24.7005 10.1049 25.9732 10.1049 25.9732C8.18087 26.708 7.36971 27.8138 7.36971 27.8138C4.52621 32.0365 4.33807 37.1981 4.18897 40.4551C4.08602 42.7058 4.55816 43.5454 5.151 43.785C12.51 46.7385 33.4883 46.7385 40.8491 43.785C41.4455 43.5471 41.9141 42.7058 41.8129 40.4551Z" fill="#192239"/>
<path d="M23.1899 26.353L22.9521 26.3583C22.1853 26.3583 21.4114 26.2092 20.6517 25.9465L22.7426 29.1468L20.8665 30.9573L22.7977 42.6845C22.8136 42.7856 22.9006 42.8584 23.0036 42.8584C23.1047 42.8584 23.1917 42.7856 23.2095 42.6845L25.1406 30.9573L23.2627 29.1468L25.3234 25.9945C24.6507 26.1915 23.939 26.3228 23.1899 26.353Z" fill="#192239"/>
</g>
<defs>
<clipPath id="clip0">
<rect width="46" height="46" fill="white"/>
</clipPath>
</defs>
</svg>
