<svg width="44" height="44" viewBox="0 0 44 44" fill="none" xmlns="http://www.w3.org/2000/svg">
<g clip-path="url(#clip0)">
<path d="M25.0962 10.036H39.5108C35.729 4.36933 29.354 0.810059 21.9935 0.810059C21.2512 0.810059 20.52 0.845035 19.801 0.913184C19.9903 4.6201 22.2179 8.53653 25.0962 10.036Z" fill="#192239"/>
<path d="M20.5201 10.036C19.7892 9.19966 19.1369 8.23853 18.5878 7.17729C17.6287 5.3237 17.0528 3.32145 16.9056 1.38184C11.6951 2.58969 7.32995 5.65499 4.4696 10.036H20.5201Z" fill="#192239"/>
<path d="M42.8123 12.9556H1.18766C0.531695 12.9556 0 13.4873 0 14.1432V29.9101C0 30.5661 0.531695 31.0978 1.18766 31.0978H42.8123C43.4683 31.0978 44 30.5661 44 29.9101V14.1432C44 13.4873 43.4683 12.9556 42.8123 12.9556ZM11.4364 25.8324C11.4364 26.4618 11.0331 27.0203 10.4356 27.2182C10.2847 27.2682 10.1299 27.2924 9.97683 27.2924C9.52411 27.2924 9.08626 27.0813 8.8055 26.704L5.67265 22.4941V25.8325C5.67265 26.6387 5.01909 27.2923 4.21291 27.2923C3.40673 27.2923 2.75318 26.6387 2.75318 25.8325V18.0873C2.75318 17.458 3.15648 16.8995 3.75392 16.7016C4.35119 16.5038 5.00827 16.711 5.38398 17.2158L8.51684 21.4257V18.0873C8.51684 17.2811 9.17039 16.6276 9.97657 16.6276C10.7828 16.6276 11.4363 17.2811 11.4363 18.0873V25.8324H11.4364ZM18.3969 20.6038C19.2031 20.6038 19.8566 21.2574 19.8566 22.0636C19.8566 22.8697 19.2031 23.5233 18.3969 23.5233H16.4305V24.3726H18.3969C19.2031 24.3726 19.8566 25.0262 19.8566 25.8324C19.8566 26.6385 19.2031 27.2921 18.3969 27.2921H14.9707C14.1646 27.2921 13.511 26.6385 13.511 25.8324V18.0987C13.511 17.2925 14.1646 16.6389 14.9707 16.6389H18.3969C19.2031 16.6389 19.8566 17.2925 19.8566 18.0987C19.8566 18.9048 19.2031 19.5584 18.3969 19.5584H16.4305V20.6037H18.3969V20.6038ZM31.5225 25.9131C31.5225 26.5456 31.115 27.1063 30.5133 27.3015C30.365 27.3497 30.2131 27.373 30.0629 27.373C29.604 27.373 29.161 27.1561 28.8811 26.7703L26.7655 23.8539L24.5576 26.7904C24.1801 27.2923 23.5238 27.4964 22.9284 27.2977C22.3328 27.0987 21.9311 26.5411 21.9311 25.9131V18.1361C21.9311 17.3299 22.5846 16.6763 23.3908 16.6763C24.197 16.6763 24.8505 17.3299 24.8505 18.1361V21.5428L25.6197 20.5198C25.8981 20.1496 26.3364 19.9364 26.7989 19.9374C27.2622 19.9413 27.696 20.165 27.968 20.5399L28.6028 21.415V18.1361C28.6028 17.33 29.2564 16.6764 30.0626 16.6764C30.8687 16.6764 31.5223 17.33 31.5223 18.1361V25.9131H31.5225ZM37.9673 27.3728H35.0848C34.2787 27.3728 33.6251 26.7192 33.6251 25.9131C33.6251 25.1069 34.2787 24.4533 35.0848 24.4533H37.9673C38.3039 24.4533 38.5778 24.1794 38.5778 23.8429C38.5778 23.5063 38.3039 23.2324 37.9673 23.2324H36.8835C35.0714 23.2324 33.5971 21.7581 33.5971 19.946C33.5971 18.1339 35.0714 16.6596 36.8835 16.6596H38.9937C39.7999 16.6596 40.4534 17.3131 40.4534 18.1193C40.4534 18.9255 39.7999 19.579 38.9937 19.579H36.8835C36.6812 19.579 36.5166 19.7436 36.5166 19.9459C36.5166 20.1482 36.6812 20.3128 36.8835 20.3128H37.9673C39.9137 20.3128 41.4972 21.8963 41.4972 23.8427C41.4972 25.7893 39.9137 27.3728 37.9673 27.3728Z" fill="#192239"/>
<path d="M24.8545 35.6691C24.6792 35.0812 24.5932 34.5423 24.5476 34.0171H4.5116C8.29199 39.6686 14.6413 43.19 21.9935 43.19C24.6405 43.19 27.124 42.7216 29.4005 41.8682C27.5492 40.4099 25.6138 38.2166 24.8545 35.6691Z" fill="#192239"/>
<path d="M27.4827 34.0171C27.517 34.2903 27.5694 34.5565 27.6524 34.8351C28.3328 37.1178 30.5885 39.3202 32.3965 40.4004C32.4131 40.4103 32.428 40.4218 32.4441 40.4322C35.2038 38.8427 37.5608 36.6393 39.4121 34.0171H27.4827Z" fill="#192239"/>
</g>
<defs>
<clipPath id="clip0">
<rect width="44" height="44" fill="white"/>
</clipPath>
</defs>
</svg>
