<svg width="101" height="101" viewBox="0 0 101 101" fill="none" xmlns="http://www.w3.org/2000/svg">
<g clip-path="url(#clip0)">
<path d="M25.3956 51.9864C25.8718 59.0987 29.4195 65.9591 35.0501 70.3529C35.0585 70.3591 35.0662 70.366 35.0747 70.3722C35.077 70.3737 35.0793 70.3752 35.0816 70.3768C44.0133 77.2842 57.0082 77.4221 65.919 70.3768C65.9214 70.3752 65.9237 70.3737 65.9252 70.3722C65.9321 70.3668 65.9391 70.3614 65.946 70.356C72.6415 65.0907 76.3641 56.5836 75.5504 48.0827C74.4238 36.3107 64.7478 26.5761 52.9111 25.4488C38.0283 24.0309 24.3939 37.0135 25.3956 51.9864ZM31.9793 38.2595L39.7798 46.0592H28.7383C29.3147 43.2273 30.4336 40.5897 31.9793 38.2595ZM49.1114 28.3361C50.0677 28.2767 51.0255 28.2806 51.9818 28.3422V41.2416C51.9702 41.24 51.9594 41.2385 51.9486 41.2369C50.9931 41.0859 50.0068 41.0836 49.0513 41.2369C49.0405 41.2385 49.0297 41.24 49.0189 41.2416V28.3422C49.0498 28.3399 49.0806 28.3384 49.1114 28.3361ZM72.2616 46.0592H61.2201L69.0206 38.2595C70.5663 40.5897 71.6852 43.2273 72.2616 46.0592ZM69.0206 62.7412L61.2201 54.9407H72.2616C71.6852 57.7726 70.5663 60.4102 69.0206 62.7412ZM51.8901 72.6708C51.6319 72.69 49.0182 72.7432 49.0182 72.6577V59.7583C49.7094 59.8724 50.416 59.897 51.1141 59.8531C51.4046 59.8354 51.6951 59.8053 51.9818 59.7583V72.6577C51.981 72.6623 51.9455 72.6669 51.8901 72.6708ZM48.9411 44.2899C52.8587 43.2389 56.9165 46.4776 56.9165 50.5007C56.9165 53.9683 53.9845 56.9095 50.5146 56.9157C50.51 56.9157 50.5054 56.9165 50.5 56.9165C50.4953 56.9165 50.4899 56.9157 50.4853 56.9157C47.2004 56.9095 44.3755 54.2742 44.1042 51.007C43.8492 47.9224 46.0476 45.0667 48.9411 44.2899ZM58.0962 56.001L67.2074 65.113C66.5563 65.8566 65.8559 66.5563 65.1123 67.2082L56.0011 58.0962C56.8078 57.5137 57.5137 56.8078 58.0962 56.001ZM56.0011 42.9037L65.1123 33.7925C65.8566 34.4436 66.5563 35.1441 67.2074 35.8877L58.0962 44.9989C57.5137 44.1921 56.8078 43.4862 56.0011 42.9037ZM42.9037 44.9989L33.7925 35.8877C34.4436 35.1433 35.1433 34.4436 35.8877 33.7925L44.9989 42.9037C44.1921 43.4862 43.4862 44.1921 42.9037 44.9989ZM44.9989 58.0962L35.8877 67.2074C35.1433 66.5563 34.4436 65.8559 33.7925 65.1123L42.9037 56.001C43.4862 56.8078 44.1921 57.5137 44.9989 58.0962ZM46.0592 61.2201V72.2624C43.2273 71.6852 40.5897 70.5663 38.2595 69.0206L46.0592 61.2201ZM54.9408 61.2201L62.7404 69.0206C60.4095 70.5663 57.7726 71.6852 54.9408 72.2616V61.2201ZM72.6962 51.1804C72.6885 51.4478 72.6754 51.7144 72.6577 51.9818H59.7583C59.7607 51.9702 59.7722 51.8839 59.7768 51.8515C59.9132 50.9137 59.9078 49.9544 59.7583 49.0189H72.6577C72.7047 49.7379 72.7185 50.4599 72.6962 51.1804ZM54.9408 39.7798V28.7383C57.7726 29.3147 60.4102 30.4336 62.7404 31.9793L54.9408 39.7798ZM46.0592 39.7798L38.2587 31.9793C40.5897 30.4336 43.2273 29.3155 46.0592 28.7383V39.7798ZM28.3423 49.0181H41.2416C41.1414 49.6531 41.1075 50.2958 41.1352 50.9376C41.1507 51.2867 41.1853 51.6365 41.2416 51.9818H28.3423C28.2814 51.9725 28.2922 50.567 28.2922 50.5C28.2914 50.2734 28.3245 49.2855 28.3423 49.0181ZM39.7798 54.9407L31.9793 62.7404C30.4336 60.4102 29.3147 57.7726 28.7383 54.9407H39.7798Z" fill="#FF9605"/>
<path d="M16.5179 52.6669C16.2413 48.2685 16.8154 43.8123 18.2247 39.6374C18.4859 38.8637 18.0698 38.0238 17.2954 37.7626C16.521 37.5014 15.6818 37.9175 15.4206 38.6911C14.8311 40.4388 14.3773 42.2234 14.0567 44.0335C11.7042 43.6336 9.36164 43.4278 7.07228 43.4278C3.17243 43.4278 0 46.6003 0 50.5001C0 54.4 3.17243 57.5724 7.07228 57.5724C9.36087 57.5724 11.7034 57.3666 14.0552 56.9667C15.0107 62.3661 17.1413 67.364 20.1712 71.6877C18.2201 73.0708 16.4131 74.585 14.7911 76.2071C12.034 78.9649 12.034 83.4512 14.7911 86.209C17.5189 88.9369 22.0668 88.9353 24.7931 86.209C26.4151 84.587 27.9293 82.78 29.3124 80.8289C33.6361 83.8588 38.634 85.9894 44.0334 86.9449C43.6335 89.2967 43.4277 91.6392 43.4277 93.9278C43.4277 97.8277 46.6002 101 50.5 101C54.3998 101 57.5723 97.8277 57.5723 93.9278C57.5723 91.6385 57.3665 89.2959 56.9666 86.9434C61.6594 86.1112 66.1587 84.3759 70.2227 81.8068C70.7197 81.4924 71.2052 81.1626 71.686 80.8258C73.0692 82.7785 74.5841 84.5862 76.2069 86.209C78.9332 88.9353 83.485 88.933 86.2089 86.209C88.9668 83.4512 88.9668 78.9649 86.2089 76.2071C84.5861 74.5842 82.7791 73.0693 80.8265 71.6861C81.8699 70.1951 82.81 68.6277 83.6291 66.9887C83.9943 66.2582 83.6976 65.3698 82.9671 65.0045C82.2359 64.6393 81.3474 64.9352 80.9822 65.6664C74.5672 78.508 60.1868 86.1528 45.9621 84.2495C30.9938 82.2468 18.751 69.9955 16.7506 55.0357C16.6458 54.2497 16.568 53.4591 16.5179 52.6669ZM79.0365 74.041C80.8843 75.3432 82.5888 76.7719 84.1168 78.2991C85.7204 79.9035 85.7204 82.5126 84.1168 84.1169C82.5318 85.702 79.8826 85.6997 78.299 84.1169C76.7718 82.5889 75.3431 80.8844 74.0409 79.0374C74.0702 79.0127 74.0994 78.9865 74.1295 78.9618C75.8795 77.5124 77.493 75.8919 78.9479 74.1458C78.9771 74.1111 79.0072 74.0764 79.0365 74.041ZM13.6583 54.0362C11.4368 54.4192 9.22679 54.6134 7.07228 54.6134C4.8045 54.6134 2.95898 52.7679 2.95898 50.5001C2.95898 48.2323 4.8045 46.3868 7.07228 46.3868C9.22756 46.3868 11.4368 46.581 13.6583 46.964C13.5797 46.984 13.5743 48.3618 13.5682 48.4774C13.4665 50.336 13.4788 52.1815 13.6583 54.0362ZM22.701 84.1169C21.1128 85.7043 18.469 85.702 16.8832 84.1169C15.2796 82.5126 15.2796 79.9035 16.8832 78.2991C18.4104 76.7719 20.1142 75.344 21.9612 74.0418C23.4654 75.8611 25.139 77.5347 26.9584 79.0381C25.6561 80.8852 24.2282 82.5897 22.701 84.1169ZM54.0361 87.3418C54.4191 89.5633 54.6133 91.7733 54.6133 93.9278C54.6133 96.1956 52.7686 98.0411 50.5 98.0411C48.2314 98.0411 46.3867 96.1956 46.3867 93.9278C46.3867 91.7725 46.5809 89.5633 46.9639 87.3418C46.9839 87.3433 47.0039 87.3449 47.024 87.3464C49.321 87.5598 51.6844 87.5637 53.9992 87.3449C54.0115 87.3441 54.0238 87.3433 54.0361 87.3418Z" fill="#FF9605"/>
<path d="M80.8288 29.3124C82.7799 27.93 84.5869 26.4151 86.2089 24.7931C88.9668 22.0352 88.9668 17.5489 86.2089 14.7911C84.8736 13.4557 83.0974 12.7198 81.208 12.7198C79.3193 12.7198 77.5431 13.4549 76.207 14.7911C74.5849 16.4131 73.0707 18.2193 71.6876 20.1712C67.3639 17.1413 62.366 15.0107 56.9666 14.0552C57.3666 11.7034 57.5723 9.36087 57.5723 7.07228C57.5723 3.17243 54.3999 0 50.5 0C46.6002 0 43.4277 3.17243 43.4277 7.07228C43.4277 9.36241 43.6335 11.7065 44.0342 14.059C38.6988 15.0037 33.6816 17.1035 29.3071 20.1642C27.9254 18.2155 26.4128 16.4116 24.7931 14.7911C23.4577 13.4557 21.6815 12.7198 19.7921 12.7198C17.9034 12.7198 16.1273 13.4557 14.7911 14.7911C12.034 17.5489 12.034 22.036 14.7911 24.7931C16.4131 26.4159 18.2201 27.93 20.1727 29.3132C19.3313 30.5168 18.5515 31.7744 17.8479 33.0898C17.4619 33.8102 17.7331 34.7072 18.4536 35.0925C19.1741 35.4785 20.071 35.2073 20.4563 34.4868C21.3301 32.854 22.3273 31.3144 23.4261 29.8719C23.4307 29.8657 23.4361 29.8603 23.4407 29.8541C30.8143 20.2775 43.034 15.1324 55.0333 16.7506C63.8571 17.9412 72.1075 22.7272 77.5593 29.8541C77.5616 29.858 77.5647 29.8603 77.567 29.8642C81.077 34.4568 83.4465 39.964 84.2494 45.9629C84.8959 50.799 84.4983 55.773 83.0712 60.4396C82.8323 61.2209 83.2715 62.0477 84.0529 62.2874C84.7996 62.5155 85.6603 62.0901 85.9007 61.3049C86.3361 59.8801 86.6828 58.4315 86.9425 56.9666C89.2951 57.3665 91.6384 57.5731 93.9277 57.5731C97.8276 57.5723 101 54.3998 101 50.5C101 46.6002 97.8276 43.4277 93.9277 43.4277C91.6391 43.4277 89.2966 43.6335 86.9448 44.0334C85.9893 38.634 83.8587 33.6369 80.8288 29.3124ZM78.2991 16.8832C79.0758 16.1064 80.1091 15.6788 81.208 15.6788C82.3068 15.6788 83.3401 16.1064 84.1169 16.8832C85.7204 18.4875 85.7204 21.0966 84.1169 22.701C82.5896 24.2282 80.8851 25.6561 79.038 26.9584C77.5347 25.139 75.861 23.4654 74.0417 21.9612C75.3439 20.1149 76.7726 18.4104 78.2991 16.8832ZM46.9639 13.6583C46.5809 11.4376 46.3867 9.22756 46.3867 7.07228C46.3867 4.8045 48.2322 2.95898 50.5 2.95898C52.7678 2.95898 54.6133 4.8045 54.6133 7.07228C54.6133 9.22756 54.4199 11.4368 54.0362 13.6583C54.013 13.656 53.9899 13.6553 53.9676 13.6529C51.9441 13.4572 49.9005 13.4387 47.8731 13.5828C47.5703 13.6044 47.2675 13.6298 46.9639 13.6583ZM16.8832 22.701C15.2796 21.0966 15.2796 18.4875 16.8832 16.8832C17.6599 16.1064 18.6932 15.6788 19.7921 15.6788C20.8909 15.6788 21.9235 16.1064 22.701 16.8832C24.2267 18.4097 25.6538 20.1118 26.9553 21.9581C25.146 23.4523 23.4708 25.1229 21.9597 26.9568C20.1134 25.6553 18.4097 24.2275 16.8832 22.701ZM87.3417 46.9639C89.5632 46.5809 91.7725 46.3867 93.9277 46.3867C96.1955 46.3867 98.041 48.2322 98.041 50.5C98.041 52.7678 96.1955 54.6133 93.9277 54.6133C91.7732 54.6133 89.564 54.4199 87.3425 54.0361C87.3964 53.4682 87.4372 52.898 87.465 52.327C87.552 50.5563 87.5104 48.7801 87.3455 47.0155C87.344 46.9985 87.3432 46.9808 87.3417 46.9639Z" fill="#FF9605"/>
</g>
<defs>
<clipPath id="clip0">
<rect width="101" height="101" fill="white"/>
</clipPath>
</defs>
</svg>
