<svg width="51" height="49" viewBox="0 0 51 49" fill="none" xmlns="http://www.w3.org/2000/svg">
<g clip-path="url(#clip0)">
<path d="M12.8235 25.0519C13.064 28.4793 14.8554 31.7852 17.6986 33.9026C17.7028 33.9055 17.7067 33.9089 17.711 33.9119C17.7122 33.9126 17.7134 33.9133 17.7145 33.9141C22.2246 37.2427 28.7863 37.3092 33.2859 33.9141C33.287 33.9133 33.2882 33.9126 33.289 33.9119C33.2925 33.9093 33.296 33.9067 33.2995 33.9041C36.6804 31.3667 38.5601 27.2672 38.1492 23.1707C37.5804 17.4979 32.6945 12.8068 26.7175 12.2636C19.2024 11.5803 12.3177 17.8365 12.8235 25.0519ZM16.148 18.437L20.0869 22.1956H14.5115C14.8025 20.8309 15.3675 19.5599 16.148 18.437ZM24.7989 13.6549C25.2817 13.6264 25.7654 13.6282 26.2482 13.6579V19.874C26.2424 19.8733 26.237 19.8725 26.2315 19.8718C25.749 19.799 25.251 19.7979 24.7685 19.8718C24.7631 19.8725 24.7576 19.8733 24.7522 19.874V13.6579C24.7677 13.6568 24.7833 13.6561 24.7989 13.6549ZM36.4886 22.1956H30.9132L34.852 18.437C35.6325 19.5599 36.1975 20.8309 36.4886 22.1956ZM34.852 30.2346L30.9132 26.4756H36.4886C36.1975 27.8402 35.6325 29.1113 34.852 30.2346ZM26.2019 35.0195C26.0716 35.0288 24.7518 35.0544 24.7518 35.0132V28.7971C25.1008 28.8521 25.4576 28.864 25.8101 28.8428C25.9568 28.8343 26.1035 28.8198 26.2482 28.7971V35.0132C26.2479 35.0155 26.23 35.0177 26.2019 35.0195ZM24.7129 21.343C26.691 20.8365 28.74 22.3972 28.74 24.3359C28.74 26.0069 27.2595 27.4243 25.5074 27.4273C25.5051 27.4273 25.5027 27.4277 25.5 27.4277C25.4977 27.4277 25.4949 27.4273 25.4926 27.4273C23.8339 27.4243 22.4074 26.1544 22.2705 24.5799C22.1417 23.0935 23.2518 21.7173 24.7129 21.343ZM29.3357 26.9865L33.9365 31.3775C33.6077 31.7358 33.254 32.073 32.8785 32.3872L28.2778 27.9962C28.6852 27.7154 29.0416 27.3753 29.3357 26.9865ZM28.2778 20.675L32.8785 16.2843C33.2544 16.5981 33.6077 16.9357 33.9365 17.294L29.3357 21.6846C29.0416 21.2958 28.6852 20.9557 28.2778 20.675ZM21.6643 21.6846L17.0636 17.294C17.3923 16.9353 17.7456 16.5981 18.1215 16.2843L22.7222 20.675C22.3148 20.9557 21.9584 21.2958 21.6643 21.6846ZM22.7222 27.9962L18.1215 32.3868C17.7456 32.073 17.3923 31.7355 17.0636 31.3771L21.6643 26.9865C21.9584 27.3753 22.3148 27.7154 22.7222 27.9962ZM23.2576 29.5015V34.8227C21.8277 34.5446 20.4958 34.0054 19.3192 33.2605L23.2576 29.5015ZM27.7424 29.5015L31.6808 33.2605C30.5038 34.0054 29.1723 34.5446 27.7424 34.8224V29.5015ZM36.708 24.6635C36.7041 24.7923 36.6975 24.9208 36.6886 25.0496H30.175C30.1762 25.0441 30.182 25.0025 30.1844 24.9869C30.2532 24.535 30.2505 24.0727 30.175 23.6219H36.6886C36.7123 23.9683 36.7193 24.3163 36.708 24.6635ZM27.7424 19.1696V13.8488C29.1723 14.1265 30.5042 14.6657 31.6808 15.4106L27.7424 19.1696ZM23.2576 19.1696L19.3188 15.4106C20.4958 14.6657 21.8277 14.1269 23.2576 13.8488V19.1696ZM14.3115 23.6215H20.825C20.7744 23.9275 20.7573 24.2372 20.7713 24.5465C20.7791 24.7147 20.7966 24.8833 20.825 25.0496H14.3115C14.2807 25.0452 14.2862 24.3679 14.2862 24.3356C14.2858 24.2264 14.3025 23.7503 14.3115 23.6215ZM20.0869 26.4756L16.148 30.2342C15.3675 29.1113 14.8025 27.8402 14.5115 26.4756H20.0869Z" fill="#192239"/>
<path d="M8.34073 25.3798C8.20104 23.2602 8.49092 21.1128 9.20258 19.1009C9.33449 18.7281 9.12438 18.3233 8.73333 18.1975C8.34229 18.0716 7.91856 18.2721 7.78665 18.6449C7.48899 19.4871 7.25981 20.3471 7.09795 21.2194C5.91003 21.0266 4.72717 20.9275 3.57115 20.9275C1.60192 20.9275 0 22.4563 0 24.3356C0 26.2149 1.60192 27.7437 3.57115 27.7437C4.72678 27.7437 5.90964 27.6445 7.09717 27.4518C7.57965 30.0537 8.65551 32.4622 10.1854 34.5457C9.20025 35.2123 8.28781 35.9419 7.46876 36.7236C6.07656 38.0526 6.07656 40.2145 7.46876 41.5435C8.84617 42.858 11.1426 42.8572 12.5193 41.5435C13.3383 40.7618 14.1029 39.891 14.8013 38.9508C16.9846 40.4109 19.5083 41.4376 22.2347 41.8981C22.0327 43.0314 21.9289 44.1602 21.9289 45.2631C21.9289 47.1424 23.5308 48.6712 25.5 48.6712C27.4692 48.6712 29.0712 47.1424 29.0712 45.2631C29.0712 44.1599 28.9673 43.031 28.7653 41.8973C31.1349 41.4963 33.4069 40.6601 35.459 39.422C35.71 39.2705 35.9551 39.1116 36.1979 38.9493C36.8963 39.8903 37.6613 40.7614 38.4807 41.5435C39.8574 42.8572 42.1558 42.8561 43.5312 41.5435C44.9238 40.2145 44.9238 38.0526 43.5312 36.7236C42.7118 35.9416 41.7994 35.2115 40.8134 34.545C41.3402 33.8264 41.8149 33.0712 42.2285 32.2813C42.413 31.9293 42.2632 31.5012 41.8943 31.3252C41.5251 31.1491 41.0764 31.2917 40.892 31.6441C37.6527 37.8324 30.3914 41.5164 23.2086 40.5992C15.6503 39.6341 9.46834 33.7303 8.45824 26.5212C8.40532 26.1425 8.36602 25.7615 8.34073 25.3798ZM39.9095 35.6798C40.8426 36.3073 41.7033 36.9958 42.4748 37.7317C43.2846 38.5049 43.2846 39.7622 42.4748 40.5353C41.6745 41.2991 40.3367 41.298 39.5371 40.5353C38.7659 39.7989 38.0446 38.9776 37.387 38.0875C37.4018 38.0756 37.4166 38.063 37.4317 38.0511C38.3154 37.3526 39.1301 36.5717 39.8648 35.7303C39.8796 35.7136 39.8947 35.6968 39.9095 35.6798ZM6.89678 26.0396C5.77501 26.2242 4.65907 26.3177 3.57115 26.3177C2.42603 26.3177 1.49414 25.4284 1.49414 24.3356C1.49414 23.2427 2.42603 22.3534 3.57115 22.3534C4.65946 22.3534 5.77501 22.447 6.89678 22.6315C6.85709 22.6412 6.85437 23.3051 6.85126 23.3608C6.7999 24.2565 6.80612 25.1458 6.89678 26.0396ZM11.4629 40.5353C10.6609 41.3002 9.32593 41.2991 8.52516 40.5353C7.71545 39.7622 7.71545 38.5049 8.52516 37.7317C9.29636 36.9958 10.1567 36.3077 11.0893 35.6801C11.8488 36.5568 12.694 37.3634 13.6126 38.0879C12.9551 38.9779 12.2341 39.7993 11.4629 40.5353ZM27.2856 42.0893C27.479 43.1599 27.577 44.2249 27.577 45.2631C27.577 46.3559 26.6455 47.2453 25.5 47.2453C24.3545 47.2453 23.423 46.3559 23.423 45.2631C23.423 44.2245 23.521 43.1599 23.7144 42.0893C23.7245 42.0901 23.7347 42.0908 23.7448 42.0916C24.9047 42.1944 26.098 42.1963 27.2669 42.0908C27.2731 42.0904 27.2794 42.0901 27.2856 42.0893Z" fill="#192239"/>
<path d="M40.8146 14.1255C41.7998 13.4593 42.7122 12.7293 43.5313 11.9476C44.9238 10.6186 44.9238 8.45672 43.5313 7.12772C42.8569 6.4842 41.9601 6.12958 41.006 6.12958C40.0523 6.12958 39.1554 6.48383 38.4807 7.12772C37.6617 7.90937 36.8971 8.77977 36.1987 9.72036C34.0154 8.26028 31.4917 7.23355 28.7653 6.7731C28.9673 5.63979 29.0712 4.51094 29.0712 3.40809C29.0712 1.52877 27.4692 0 25.5 0C23.5308 0 21.9289 1.52877 21.9289 3.40809C21.9289 4.51168 22.0327 5.64128 22.2351 6.77495C19.541 7.23021 17.0075 8.24209 14.7986 9.71702C14.101 8.77792 13.3372 7.90863 12.5193 7.12772C11.845 6.4842 10.9481 6.12958 9.99402 6.12958C9.04034 6.12958 8.14347 6.4842 7.46877 7.12772C6.07657 8.45672 6.07657 10.619 7.46877 11.9476C8.28782 12.7296 9.20026 13.4593 10.1862 14.1258C9.76134 14.7059 9.36757 15.3119 9.01233 15.9457C8.81739 16.2929 8.95435 16.7252 9.31816 16.9108C9.68196 17.0969 10.1349 16.9662 10.3294 16.619C10.7707 15.8321 11.2742 15.0902 11.829 14.3951C11.8313 14.3921 11.8341 14.3895 11.8364 14.3865C15.5597 9.7716 21.73 7.29222 27.7891 8.07202C32.2447 8.64572 36.4107 10.9521 39.1636 14.3865C39.1648 14.3884 39.1663 14.3895 39.1675 14.3913C40.9399 16.6045 42.1363 19.2584 42.5418 22.1492C42.8682 24.4797 42.6675 26.8766 41.9468 29.1254C41.8262 29.502 42.048 29.9004 42.4426 30.0159C42.8196 30.1258 43.2542 29.9208 43.3756 29.5424C43.5955 28.8558 43.7705 28.1577 43.9017 27.4518C45.0896 27.6446 46.2728 27.7441 47.4289 27.7441C49.3981 27.7437 51 26.2149 51 24.3356C51 22.4563 49.3981 20.9275 47.4289 20.9275C46.2732 20.9275 45.0904 21.0267 43.9028 21.2194C43.4204 18.6175 42.3445 16.2094 40.8146 14.1255ZM39.5372 8.13589C39.9294 7.76158 40.4511 7.55549 41.006 7.55549C41.5609 7.55549 42.0826 7.76158 42.4748 8.13589C43.2846 8.909 43.2846 10.1663 42.4748 10.9394C41.7037 11.6754 40.843 12.3635 39.9103 12.9911C39.1512 12.1143 38.306 11.3078 37.3874 10.583C38.045 9.69325 38.7663 8.87187 39.5372 8.13589ZM23.7144 6.58186C23.5211 5.51168 23.423 4.4467 23.423 3.40809C23.423 2.31526 24.3549 1.42592 25.5 1.42592C26.6451 1.42592 27.577 2.31526 27.577 3.40809C27.577 4.4467 27.4794 5.51131 27.2856 6.58186C27.2739 6.58075 27.2622 6.58038 27.251 6.57926C26.2292 6.48494 25.1973 6.47603 24.1736 6.54547C24.0207 6.55587 23.8677 6.56812 23.7144 6.58186ZM8.52517 10.9394C7.71546 10.1663 7.71546 8.909 8.52517 8.13589C8.91739 7.76158 9.43917 7.55549 9.99402 7.55549C10.5489 7.55549 11.0703 7.76158 11.4629 8.13589C12.2333 8.87149 12.9539 9.69177 13.6111 10.5815C12.6975 11.3015 11.8516 12.1065 11.0886 12.9903C10.1563 12.3631 9.29598 11.6751 8.52517 10.9394ZM44.1032 22.6316C45.225 22.447 46.3405 22.3534 47.4289 22.3534C48.574 22.3534 49.5059 23.2428 49.5059 24.3356C49.5059 25.4284 48.574 26.3178 47.4289 26.3178C46.3409 26.3178 45.2254 26.2246 44.1036 26.0397C44.1309 25.766 44.1515 25.4912 44.1655 25.216C44.2095 24.3627 44.1884 23.5068 44.1052 22.6565C44.1044 22.6483 44.104 22.6397 44.1032 22.6316Z" fill="#192239"/>
</g>
<defs>
<clipPath id="clip0">
<rect width="51" height="48.6712" fill="white"/>
</clipPath>
</defs>
</svg>
