<svg width="36" height="36" viewBox="0 0 36 36" fill="none" xmlns="http://www.w3.org/2000/svg">
<path d="M0.635866 17.3575L8.93099 20.4535L12.1417 30.7791C12.3471 31.4404 13.1558 31.6849 13.6926 31.246L18.3164 27.4766C18.8011 27.0817 19.4915 27.062 19.998 27.4297L28.3377 33.4845C28.9119 33.9019 29.7254 33.5872 29.8694 32.8934L35.9787 3.50646C36.1359 2.74854 35.3912 2.11626 34.6695 2.39538L0.626146 15.5283C-0.213974 15.8523 -0.206654 17.0417 0.635866 17.3575ZM11.6243 18.8054L27.836 8.82054C28.1274 8.64162 28.4271 9.03558 28.1769 9.26766L14.7975 21.7045C14.3273 22.1422 14.0239 22.7281 13.938 23.3639L13.4822 26.7415C13.4219 27.1924 12.7884 27.2372 12.6639 26.8007L10.9111 20.6417C10.7103 19.9393 11.0029 19.1889 11.6243 18.8054Z" fill="white"/>
</svg>
