<svg width="36" height="36" viewBox="0 0 36 36" fill="none" xmlns="http://www.w3.org/2000/svg">
<g clip-path="url(#clip0)">
<path d="M34.7325 20.8398C35.8065 11.7993 34.2165 6.09178 31.3485 3.51028L31.35 3.50878C26.721 -0.899719 11.088 -1.55222 5.55 3.70678C3.063 6.27928 2.187 10.0548 2.091 14.7288C1.995 19.4043 1.881 28.1628 10.0425 30.5388H10.05L10.0425 34.1673C10.0425 34.1673 9.987 35.6373 10.926 35.9328C12 36.2808 12.486 35.5983 15.8265 31.6083C21.4125 32.0928 25.7025 30.9828 26.19 30.8208C27.318 30.4428 33.7005 29.5983 34.7325 20.8398ZM16.377 29.0553C16.377 29.0553 12.8415 33.4638 11.742 34.6083C11.382 34.9803 10.9875 34.9458 10.9935 34.2078C10.9935 33.7233 11.0205 28.1838 11.0205 28.1838C4.101 26.2008 4.509 18.7428 4.584 14.8413C4.659 10.9383 5.373 7.74178 7.479 5.58928C12.3375 1.03378 26.043 2.05228 29.535 5.33428C33.804 9.11878 32.2845 19.8108 32.2935 20.1753C31.416 27.4863 26.244 27.9498 25.293 28.2663C24.8865 28.4013 21.114 29.3718 16.377 29.0553Z" fill="white"/>
<path d="M18.333 6.44531C17.7555 6.44531 17.7555 7.34531 18.333 7.35281C22.8135 7.38731 26.5035 10.5103 26.544 16.2388C26.544 16.8433 27.429 16.8358 27.4215 16.2313H27.42C27.372 10.0588 23.343 6.47981 18.333 6.44531Z" fill="white"/>
<path d="M24.2265 15.2896C24.213 15.8866 25.0965 15.9151 25.104 15.3106C25.1775 11.9071 23.079 9.10355 19.1355 8.80805C18.558 8.76605 18.498 9.67355 19.074 9.71555C22.494 9.97505 24.2955 12.3091 24.2265 15.2896Z" fill="white"/>
<path d="M23.2814 19.1612C22.5404 18.7322 21.7859 18.9992 21.4739 19.4207L20.8214 20.2652C20.4899 20.6942 19.8704 20.6372 19.8704 20.6372C15.3495 19.4417 14.1405 14.7107 14.1405 14.7107C14.1405 14.7107 14.085 14.0702 14.499 13.7267L15.315 13.0517C15.723 12.7277 15.9809 11.9477 15.5655 11.1812C14.4555 9.17566 13.71 8.48416 13.3305 7.95316C12.9315 7.45366 12.3315 7.34116 11.7075 7.67866H11.694C10.3965 8.43766 8.97595 9.85816 9.43045 11.3207C10.206 12.8627 11.631 17.7782 16.1729 21.4922C18.3074 23.2487 21.6854 25.0487 23.1194 25.4642L23.1329 25.4852C24.5459 25.9562 25.9199 24.4802 26.6534 23.1437V23.1332C26.9789 22.4867 26.8709 21.8747 26.3954 21.4742C25.5524 20.6522 24.2804 19.7447 23.2814 19.1612Z" fill="white"/>
<path d="M19.7535 12.1565C21.195 12.2405 21.894 12.9935 21.969 14.54C21.996 15.1445 22.8735 15.1025 22.8465 14.498C22.7505 12.479 21.6975 11.354 19.8015 11.249C19.224 11.2145 19.17 12.122 19.7535 12.1565Z" fill="white"/>
</g>
<defs>
<clipPath id="clip0">
<rect width="36" height="36" fill="white"/>
</clipPath>
</defs>
</svg>
