<svg width="40" height="40" viewBox="0 0 40 40" fill="none" xmlns="http://www.w3.org/2000/svg">
<path d="M12.8869 23.3929C14.4717 23.6309 16.4062 23.2663 18.5193 23.1399C18.9137 23.2291 19.308 23.2887 19.7172 23.2887C20.1339 23.2887 20.5431 23.2291 20.9523 23.1324C26.4509 23.4003 30.7366 24.9554 30.7366 13.7649C30.7366 6.16815 25.8035 0 19.7172 0C13.6309 0 8.69788 6.16815 8.69788 13.7649C8.69788 19.8735 9.86603 22.247 11.7634 23.0729C12.1131 23.2366 12.4925 23.3333 12.8869 23.3929ZM11.1309 9.47173C12.2842 11.0714 15.2753 10.7292 17.8571 8.70536C18.5119 8.19196 19.0848 7.60417 19.5461 7.00893C19.6056 7.01637 19.6651 7.02381 19.7247 7.03869C19.9776 7.08333 20.2083 7.17262 20.4687 7.25446C20.6994 7.36607 20.9523 7.45536 21.1756 7.59673C21.4063 7.71577 21.6146 7.87946 21.8229 8.02083C22.0089 8.18452 22.2172 8.34077 22.3735 8.51935C22.5371 8.68304 22.6934 8.86161 22.8124 9.03274C22.9463 9.19643 23.0431 9.36756 23.1398 9.51637C23.2364 9.66518 23.3183 9.79911 23.363 9.91815C23.4746 10.1488 23.5415 10.2827 23.5415 10.2827C23.5415 10.2827 23.5192 10.1414 23.4746 9.88095C23.4597 9.74702 23.4225 9.59821 23.3779 9.41964C23.3332 9.24107 23.2811 9.03274 23.1919 8.8244C23.1175 8.60863 23.0133 8.38542 22.8942 8.14732C22.7826 7.90923 22.6189 7.67857 22.4626 7.4256C22.2766 7.19494 22.1055 6.94196 21.8823 6.71875C21.6739 6.48065 21.4209 6.27976 21.1754 6.06399C20.9448 5.9003 20.6993 5.72173 20.4389 5.58036C20.5505 5.3497 20.6397 5.11161 20.7141 4.88839C21.6367 5.30506 22.5817 5.83333 23.3332 6.58482C26.0936 9.34524 25.0073 12.5521 27.1353 10.4315C27.4701 10.0967 27.7454 9.74702 27.9612 9.39732C28.0356 9.39732 28.11 9.38988 28.1695 9.40476C28.4597 9.47917 28.6457 9.70238 28.7499 9.88095C29.0401 10.3646 29.1071 11.064 28.9285 11.7634C28.6606 12.8051 27.9761 13.4226 27.4255 13.4896L26.9791 13.5491L26.8601 13.9881C25.8035 17.8199 22.9538 21.8973 19.7321 21.8973C16.5104 21.8973 13.6681 17.8199 12.6041 13.9881L12.4851 13.5491L12.0387 13.4896C11.4955 13.4152 10.8035 12.7976 10.5357 11.7634C10.3571 11.064 10.4241 10.3646 10.7142 9.88095C10.7812 9.74702 10.93 9.57589 11.1309 9.47173Z" fill="#192239"/>
<path d="M27.9985 24.3975C27.1354 25.8706 26.1309 27.1132 24.8065 27.7977C22.0684 29.1965 20.0298 30.3423 20.0298 30.3423L20.0223 30.3349V30.3125L20 30.3274L19.9776 30.3125V30.3349L19.9702 30.3423C19.9702 30.3423 17.939 29.2114 15.1934 27.7977C13.869 27.1132 12.872 25.8706 12.0015 24.3975C7.9464 26.0492 5.11902 29.8289 5.11902 33.1399C5.11902 36.6221 5.11902 40 5.11902 40H19.9702H20.0297H34.8809C34.8809 40 34.8809 36.6221 34.8809 33.1399C34.8809 29.8364 32.0461 26.0492 27.9985 24.3975Z" fill="#192239"/>
</svg>
