<svg width="33" height="33" viewBox="0 0 33 33" fill="none" xmlns="http://www.w3.org/2000/svg"><g clip-path="url(#clip0)" fill="#192239"><path d="M16.5 23.54c1.01 0 1.828-.328 1.828-.732 0-.404-.818-.73-1.828-.73-1.01 0-1.828.326-1.828.73 0 .404.819.732 1.828.732z"/><path d="M31.216 17.892v-6.266c0-.436-.036-.835-.089-1.217-.008-.06-.005-.107-.016-.168-.01-.052-.028-.106-.04-.157a5.969 5.969 0 00-.461-1.469C29.003 4.828 24.442 1.252 19.182.23 13.584-.855 7.624 2.047 6.215 5.644c-2.675.789-4.43 2.486-4.43 5.982v6.27a4.921 4.921 0 00-1.006 2.993c0 2.172 1.38 4.01 3.264 4.6C6.428 30.054 11.213 33 16.523 33c5.315 0 10.107-2.953 12.49-7.528 1.857-.608 3.21-2.432 3.21-4.584a4.942 4.942 0 00-1.006-2.996zm-3.558 4.87c-.213 0-.413-.048-.599-.134-1.49 4.328-5.638 7.446-10.534 7.446-4.901 0-9.055-3.123-10.54-7.458a1.471 1.471 0 01-.64.146c-.91 0-1.64-.838-1.64-1.874s.73-1.873 1.64-1.873c.016 0 .033.004.05.005.013-1.462.322-3.773.862-5.167.711.993 1.798 1.922 3.397 1.922h.001c.075 0 .15-.002.226-.007a.365.365 0 00.326-.245c.013-.039 1.348-3.763 4.858-4.12.148.725.371 2.698-1.218 3.89a.366.366 0 00.164.653c.03.005.757.112 1.84.112 1.846 0 5.2-.336 7.385-2.531.366.368 1.01 1.274.71 2.905a.365.365 0 00.596.342c.078-.067 1.436-1.24 2.393-2.537.451 1.407.71 3.445.719 4.774h.005c.91 0 1.64.838 1.64 1.873 0 1.036-.732 1.878-1.641 1.878z"/><path d="M11.534 19.97a1.645 1.645 0 100-3.29 1.645 1.645 0 000 3.29zm9.933 0a1.645 1.645 0 100-3.29 1.645 1.645 0 000 3.29z"/></g><defs><clipPath id="clip0"><path fill="#fff" d="M0 0h33v33H0z"/></clipPath></defs></svg>