<svg width="72" height="72" viewBox="0 0 72 72" fill="none" xmlns="http://www.w3.org/2000/svg"><g clip-path="url(#clip0)" fill="#FF9605"><path d="M36.07 55.76a7.031 7.031 0 100-14.062 7.031 7.031 0 000 14.062z"/><path d="M69.89 0H2.11A2.11 2.11 0 000 2.11v50.622a2.11 2.11 0 002.11 2.109h24.523c-4.835-7.44.529-17.362 9.437-17.362 8.909 0 14.273 9.923 9.437 17.362h24.384A2.11 2.11 0 0072 52.73V2.11A2.11 2.11 0 0069.89 0zM27.563 8.578h16.875a2.11 2.11 0 110 4.218H27.564a2.11 2.11 0 110-4.218zm29.532 25.31H14.906a2.11 2.11 0 110-4.217h42.188a2.11 2.11 0 110 4.218zm0-8.436H14.906a2.11 2.11 0 110-4.219h42.188a2.11 2.11 0 110 4.219zM27.668 56.198v13.69c0 1.672 1.867 2.69 3.275 1.757L36.14 68.2l5.198 3.445c1.385.92 3.274-.065 3.274-1.757V56.036c-4.443 5.188-12.4 5.27-16.945.162z"/></g><defs><clipPath id="clip0"><path fill="#fff" d="M0 0h72v72H0z"/></clipPath></defs></svg>