<svg width="45" height="45" viewBox="0 0 45 45" fill="none" xmlns="http://www.w3.org/2000/svg"><path d="M43.901 20.224C42.644 8.42 32.027-.176 20.215 1.09a21.473 21.473 0 00-15.689 9.554 1.798 1.798 0 00.51 2.487 1.798 1.798 0 002.487-.51 17.877 17.877 0 0113.079-7.954c9.834-1.046 18.685 6.1 19.731 15.935.51 4.763-.87 9.44-3.885 13.174-3.014 3.727-7.295 6.065-12.058 6.566-6.504.703-12.885-2.25-16.603-7.559l3.314.712a1.798 1.798 0 00.755-3.515l-7.163-1.538a1.796 1.796 0 00-2.135 1.38L1.02 36.983c-.211.967.413 1.908 1.38 2.136 1.09.255 1.95-.536 2.135-1.38l.554-2.584a21.625 21.625 0 0017.429 8.877c.747 0 1.502-.035 2.258-.123a21.386 21.386 0 0014.476-7.883c3.603-4.465 5.256-10.082 4.65-15.803z" fill="#fff"/><path d="M23.889 12.331c-.994 0-1.793.8-1.793 1.793V22.5c0 .475.193.932.527 1.266l8.376 8.376c.835.94 2.189.351 2.54 0a1.793 1.793 0 000-2.54l-7.849-7.85v-7.628a1.808 1.808 0 00-1.801-1.793z" fill="#fff"/></svg>