<svg width="48" height="48" viewBox="0 0 48 48" fill="none" xmlns="http://www.w3.org/2000/svg"><path d="M24 0c13.254 0 24 10.746 24 24S37.254 48 24 48 0 37.254 0 24 10.746 0 24 0zm-6.894 33.462c1.047 1.274 2.41 2.133 4 2.568.691.187 1.008.553.968 1.274-.03.71 0 1.412.01 2.123 0 .632.326.968.948.988.405.01.81.02 1.215.02.355 0 .711 0 1.067-.01.671-.01.987-.395.987-1.047.01-.514.01-1.037.01-1.55.01-1.147.05-1.186 1.146-1.364 1.402-.227 2.785-.543 4.069-1.165 1.007-.494 1.116-.741.83-1.808-.218-.79-.435-1.58-.682-2.36-.178-.573-.346-.83-.652-.83-.178 0-.405.09-.71.247-1.423.74-2.934 1.156-4.524 1.353-.267.03-.534.05-.8.05a5.339 5.339 0 01-2.163-.445c-1.768-.77-2.045-2.815-.553-4.04.503-.414 1.086-.72 1.689-.987 1.55-.681 3.16-1.195 4.622-2.074 2.37-1.422 3.871-3.368 3.694-6.252-.198-3.26-2.045-5.294-5.038-6.38-1.234-.445-1.244-.435-1.244-1.719 0-.434.01-.869-.01-1.313-.03-.968-.188-1.136-1.155-1.166h-1.126c-1.837 0-1.837.08-1.847 2.065-.01 1.461-.01 1.461-1.462 1.688a12.861 12.861 0 00-3.2.958c-.563.247-.78.642-.602 1.245.256.889.503 1.787.78 2.667.178.533.345.78.662.78.177 0 .395-.07.671-.208a10.098 10.098 0 015.077-1.007c.464.03.918.089 1.353.277 1.54.671 1.788 2.37.474 3.417-.662.533-1.422.908-2.203 1.234-1.363.563-2.726 1.107-4.02 1.818-4.069 2.271-5.175 7.437-2.28 10.953z" fill="#fff"/></svg>