<svg width="40" height="40" viewBox="0 0 40 40" fill="none" xmlns="http://www.w3.org/2000/svg"><path d="M17.956 19.128c0 .715-.546 1.174-1.468 1.174h-.725v-2.254a4.58 4.58 0 01.835-.06c.848.013 1.358.389 1.358 1.14zM39.998 20a5.78 5.78 0 01-1.7 4.106l-2.456 2.457v3.472a5.816 5.816 0 01-5.806 5.806h-3.473l-2.454 2.457A5.78 5.78 0 0120 40a5.772 5.772 0 01-4.108-1.703l-2.453-2.452H9.965a5.78 5.78 0 01-4.107-1.7 5.767 5.767 0 01-1.7-4.106v-3.476L1.701 24.11a5.77 5.77 0 01-1.699-4.107c0-1.553.606-3.01 1.7-4.106l2.456-2.456V9.968A5.814 5.814 0 019.965 4.16h3.472l2.457-2.458A5.764 5.764 0 0119.999 0c1.554 0 3.01.605 4.109 1.703l2.453 2.453h3.473c1.55 0 3.01.604 4.106 1.7a5.76 5.76 0 011.7 4.107v3.473l2.457 2.457A5.78 5.78 0 0139.998 20zm-27.453-3.319H7.557v8.16H9.41V21.56h2.93v-1.502H9.41v-1.864h3.138V16.68l-.003.001zm7.553 8.16c-.158-.315-.41-1.378-.666-2.3-.207-.749-.52-1.296-1.092-1.526v-.034c.702-.255 1.441-.968 1.441-2.01 0-.752-.267-1.32-.75-1.708-.581-.46-1.429-.642-2.64-.642-.982 0-1.865.073-2.459.17v8.05h1.829v-3.207h.558c.751.012 1.102.291 1.32 1.31.242 1.003.435 1.67.567 1.9l1.892-.003zm6.219-1.512h-3.358v-1.938h3.004v-1.502H22.96v-1.695h3.189V16.68H21.11v8.16h5.208v-1.511zm6.462 0h-3.355v-1.938h3.002v-1.502h-3.002v-1.695h3.186V16.68h-5.036v8.16h5.205v-1.511z" fill="#0C121E"/></svg>