<svg width="37" height="37" viewBox="0 0 37 37" fill="none" xmlns="http://www.w3.org/2000/svg"><g clip-path="url(#clip0)"><path d="M31.581 5.419A18.38 18.38 0 0018.5 0 18.38 18.38 0 005.419 5.419 18.38 18.38 0 000 18.5a18.38 18.38 0 005.419 13.081A18.38 18.38 0 0018.5 37a18.38 18.38 0 0013.081-5.419A18.38 18.38 0 0037 18.5a18.38 18.38 0 00-5.419-13.081zM6.291 7.666a16.3 16.3 0 003.398 2.348c-.615 2.275-.976 4.789-1.054 7.402h-6.43a16.265 16.265 0 014.085-9.75zm20.351.239a20.883 20.883 0 00-.953-2.209 15.147 15.147 0 00-1.596-2.541 16.346 16.346 0 015.068 2.982 13.993 13.993 0 01-2.519 1.768zM17.416 9.9a16.713 16.713 0 01-5.088-1.074 19.03 19.03 0 01.918-2.153c1.17-2.316 2.647-3.833 4.17-4.328V9.9zm0 2.171v5.344h-6.613c.073-2.299.377-4.504.89-6.508a19.06 19.06 0 005.723 1.164zm0 7.512v5.344a19.06 19.06 0 00-5.723 1.164c-.513-2.004-.817-4.21-.89-6.508h6.613zm0 7.515v7.555c-1.523-.495-3-2.012-4.17-4.328a19.04 19.04 0 01-.917-2.149 16.834 16.834 0 015.087-1.078zm2.168 0c1.798.102 3.5.462 5.088 1.074a19.03 19.03 0 01-.918 2.153c-1.17 2.316-2.647 3.833-4.17 4.328V27.1zm0-2.171v-5.344h6.613c-.073 2.299-.377 4.504-.89 6.508a19.062 19.062 0 00-5.723-1.164zm0-7.512v-5.344a19.062 19.062 0 005.723-1.164c.513 2.004.817 4.21.89 6.508h-6.613zm0-7.515V2.346c1.523.495 3 2.012 4.17 4.328.339.671.645 1.392.918 2.153-1.588.612-3.29.972-5.088 1.074zm-8.273-4.205c-.35.693-.668 1.432-.953 2.209a14.006 14.006 0 01-2.519-1.767 16.347 16.347 0 015.068-2.983 15.14 15.14 0 00-1.596 2.541zM8.635 19.584c.078 2.613.439 5.127 1.054 7.402a16.3 16.3 0 00-3.399 2.348 16.265 16.265 0 01-4.085-9.75h6.43zm1.723 9.511c.285.777.603 1.516.953 2.209a15.13 15.13 0 001.596 2.541 16.344 16.344 0 01-5.07-2.984 14.17 14.17 0 012.52-1.766zm15.331 2.209c.35-.693.668-1.432.953-2.209a14.002 14.002 0 012.519 1.767 16.352 16.352 0 01-5.068 2.983 15.178 15.178 0 001.596-2.541zm5.02-1.97a16.3 16.3 0 00-3.398-2.348c.615-2.275.976-4.789 1.054-7.402h6.43a16.266 16.266 0 01-4.086 9.75zm-2.344-11.918c-.078-2.613-.439-5.127-1.054-7.402a16.3 16.3 0 003.398-2.348 16.266 16.266 0 014.086 9.75h-6.43z" fill="#fff"/></g><defs><clipPath id="clip0"><path fill="#fff" d="M0 0h37v37H0z"/></clipPath></defs></svg>