<svg width="46" height="46" viewBox="0 0 46 46" fill="none" xmlns="http://www.w3.org/2000/svg"><g clip-path="url(#clip0)" fill="#192239"><path d="M14.09 14.43c.16.735.404 1.211.69 1.507.68 4.732 4.928 8.765 8.339 8.597 4.34-.213 7.416-4.89 8.106-8.597.286-.294.561-.924.726-1.664.185-.85.384-2.132-.128-2.81a6.774 6.774 0 00-.259-.245c.488-1.761 1.56-4.903-1.11-7.727C29.009 1.961 27 1.193 25.185.586c-5.361-1.791-9.145.72-10.892 4.897-.126.296-.94 2.172.046 5.735a1.013 1.013 0 00-.255.245c-.513.676-.18 2.117.007 2.968z"/><path d="M41.813 40.455c-.15-3.257-.334-8.419-3.18-12.641 0 0-.81-1.106-2.734-1.84 0 0-4.178-1.273-6.103-2.649l-.878.602.097 5.712L23.74 43.72a.789.789 0 01-1.477 0L16.99 29.64s.098-5.695.096-5.712c.012.048-.88-.602-.88-.602-1.921 1.376-6.101 2.648-6.101 2.648-1.924.735-2.735 1.84-2.735 1.84-2.844 4.223-3.032 9.385-3.181 12.642-.103 2.25.37 3.09.962 3.33 7.359 2.954 28.337 2.954 35.698 0 .597-.238 1.065-1.08.964-3.33z"/><path d="M23.19 26.353l-.238.005c-.767 0-1.54-.149-2.3-.412l2.09 3.2-1.876 1.811 1.932 11.727a.21.21 0 00.412 0l1.93-11.727-1.877-1.81 2.06-3.152a8.837 8.837 0 01-2.133.358z"/></g><defs><clipPath id="clip0"><path fill="#fff" d="M0 0h46v46H0z"/></clipPath></defs></svg>