<svg width="44" height="44" viewBox="0 0 44 44" fill="none" xmlns="http://www.w3.org/2000/svg"><g clip-path="url(#clip0)" fill="#192239"><path d="M25.096 10.036h14.415C35.729 4.369 29.354.81 21.993.81c-.742 0-1.473.035-2.192.103.19 3.707 2.417 7.624 5.295 9.123zm-4.576 0a14.397 14.397 0 01-1.932-2.859c-.96-1.853-1.535-3.856-1.682-5.795C11.696 2.59 7.33 5.655 4.47 10.036h16.05zm22.292 2.92H1.188c-.656 0-1.188.531-1.188 1.187V29.91c0 .656.532 1.188 1.188 1.188h41.624c.656 0 1.188-.532 1.188-1.188V14.143c0-.656-.532-1.187-1.188-1.187zM11.436 25.832a1.46 1.46 0 01-2.63.872l-3.133-4.21v3.338a1.46 1.46 0 11-2.92 0v-7.745a1.46 1.46 0 012.631-.871l3.133 4.21v-3.339a1.46 1.46 0 012.92 0v7.745zm6.96-5.228a1.46 1.46 0 010 2.92H16.43v.849h1.967a1.46 1.46 0 010 2.92H14.97a1.46 1.46 0 01-1.46-1.46v-7.734c0-.806.654-1.46 1.46-1.46h3.426a1.46 1.46 0 010 2.92H16.43v1.045h1.966zm13.127 5.31a1.46 1.46 0 01-2.642.856l-2.116-2.916-2.207 2.936a1.46 1.46 0 01-2.627-.877v-7.777a1.46 1.46 0 112.92 0v3.407l.769-1.023a1.46 1.46 0 012.348.02l.635.875v-3.279a1.46 1.46 0 012.92 0v7.777zm6.444 1.459h-2.882a1.46 1.46 0 010-2.92h2.882a.611.611 0 000-1.22h-1.084a3.29 3.29 0 01-3.286-3.287 3.29 3.29 0 013.286-3.286h2.11a1.46 1.46 0 110 2.919h-2.11a.367.367 0 000 .734h1.084a3.534 3.534 0 013.53 3.53 3.534 3.534 0 01-3.53 3.53zM24.855 35.67a8.118 8.118 0 01-.307-1.653H4.512c3.78 5.652 10.13 9.173 17.482 9.173a21 21 0 007.407-1.322c-1.852-1.458-3.787-3.651-4.546-6.199zm2.628-1.653c.034.273.086.54.17.818.68 2.283 2.936 4.485 4.744 5.565l.047.032c2.76-1.59 5.117-3.793 6.968-6.415h-11.93z"/></g><defs><clipPath id="clip0"><path fill="#fff" d="M0 0h44v44H0z"/></clipPath></defs></svg>