<svg width="51" height="49" viewBox="0 0 51 49" fill="none" xmlns="http://www.w3.org/2000/svg"><g clip-path="url(#clip0)" fill="#192239"><path d="M12.823 25.052c.241 3.427 2.032 6.733 4.876 8.85l.012.01.004.002c4.51 3.329 11.071 3.395 15.57 0l.004-.002.01-.008c3.381-2.537 5.261-6.637 4.85-10.733-.569-5.673-5.455-10.364-11.431-10.907-7.516-.684-14.4 5.573-13.895 12.788zm3.325-6.615l3.939 3.759h-5.575a10.374 10.374 0 011.636-3.759zm8.65-4.782a11.89 11.89 0 011.45.003v6.216l-.017-.002a4.89 4.89 0 00-1.463 0l-.016.002v-6.216l.047-.003zm11.69 8.54h-5.575l3.939-3.758a10.376 10.376 0 011.637 3.759zm-1.636 8.04l-3.939-3.76h5.576a10.382 10.382 0 01-1.637 3.76zm-8.65 4.785c-.13.009-1.45.034-1.45-.007v-6.216a4.918 4.918 0 001.496 0v6.216c0 .003-.018.005-.046.007zm-1.49-13.677c1.979-.506 4.028 1.054 4.028 2.993 0 1.67-1.48 3.088-3.233 3.091h-.014c-1.66-.003-3.086-1.273-3.223-2.847-.128-1.486.982-2.863 2.443-3.237zm4.624 5.643l4.6 4.392c-.328.358-.682.695-1.057 1.01l-4.601-4.392c.407-.28.764-.62 1.058-1.01zm-1.058-6.311l4.6-4.39c.376.313.73.65 1.059 1.009l-4.601 4.39a4.586 4.586 0 00-1.058-1.009zm-6.614 1.01l-4.6-4.391c.328-.359.682-.696 1.058-1.01l4.6 4.391c-.407.28-.764.62-1.058 1.01zm1.058 6.311l-4.6 4.39a10.74 10.74 0 01-1.058-1.009l4.6-4.39c.294.388.65.728 1.058 1.01zm.536 1.506v5.32a11.445 11.445 0 01-3.939-1.562l3.939-3.758zm4.484 0l3.939 3.759a11.442 11.442 0 01-3.939 1.561v-5.32zm8.966-4.838c-.004.128-.01.257-.02.386h-6.513l.01-.063a4.331 4.331 0 00-.01-1.365h6.514c.023.346.03.694.019 1.041zm-8.966-5.494v-5.321c1.43.277 2.762.817 3.939 1.562l-3.939 3.759zm-4.484 0l-3.94-3.76a11.45 11.45 0 013.94-1.561v5.32zm-8.946 4.451h6.513a4.436 4.436 0 000 1.429h-6.513c-.031-.005-.026-.682-.026-.714 0-.11.017-.586.026-.714zm5.775 2.855l-3.939 3.758a10.375 10.375 0 01-1.636-3.758h5.575z"/><path d="M8.34 25.38a15.76 15.76 0 01.863-6.28.706.706 0 00-.47-.902c-.39-.126-.814.074-.946.447a17.062 17.062 0 00-.689 2.574 22.061 22.061 0 00-3.527-.292c-1.97 0-3.571 1.53-3.571 3.409 0 1.879 1.602 3.408 3.571 3.408 1.156 0 2.339-.1 3.526-.292a17.312 17.312 0 003.088 7.094 20.896 20.896 0 00-2.716 2.178 3.303 3.303 0 000 4.82c1.377 1.314 3.674 1.313 5.05 0a20.402 20.402 0 002.282-2.593 19.08 19.08 0 007.434 2.947 19.214 19.214 0 00-.306 3.365c0 1.88 1.602 3.408 3.571 3.408 1.97 0 3.571-1.529 3.571-3.408 0-1.103-.104-2.232-.306-3.366a19.132 19.132 0 006.694-2.475c.251-.151.496-.31.739-.473a20.363 20.363 0 002.283 2.595c1.376 1.313 3.675 1.312 5.05 0a3.303 3.303 0 000-4.82 20.845 20.845 0 00-2.718-2.179 17.782 17.782 0 001.415-2.264.698.698 0 00-.334-.956.764.764 0 00-1.002.32c-3.24 6.187-10.5 9.871-17.683 8.954-7.559-.965-13.74-6.869-14.75-14.078-.054-.379-.093-.76-.118-1.141zm31.57 10.3a19.413 19.413 0 012.565 2.052c.81.773.81 2.03 0 2.803-.8.764-2.138.763-2.938 0a18.976 18.976 0 01-2.15-2.447l.045-.037a18.311 18.311 0 002.433-2.32l.044-.051zM6.897 26.04a20.526 20.526 0 01-3.326.278c-1.145 0-2.077-.89-2.077-1.982 0-1.093.932-1.983 2.077-1.983a20.6 20.6 0 013.326.278c-.04.01-.043.674-.046.73a16.88 16.88 0 00.046 2.679zm4.566 14.495c-.802.765-2.137.764-2.938 0a1.922 1.922 0 010-2.803 19.42 19.42 0 012.564-2.052c.76.877 1.605 1.683 2.524 2.408a18.942 18.942 0 01-2.15 2.447zm15.823 1.554c.193 1.07.291 2.136.291 3.174 0 1.093-.932 1.982-2.077 1.982s-2.077-.89-2.077-1.982c0-1.038.098-2.103.291-3.174l.03.003a19.89 19.89 0 003.523-.001c.006 0 .012 0 .019-.002zm13.529-27.963a20.863 20.863 0 002.716-2.178 3.303 3.303 0 000-4.82 3.636 3.636 0 00-2.525-.998c-.954 0-1.85.354-2.525.998a20.37 20.37 0 00-2.282 2.592 19.08 19.08 0 00-7.434-2.947c.202-1.133.306-2.262.306-3.365C29.071 1.528 27.47 0 25.5 0c-1.97 0-3.571 1.529-3.571 3.408 0 1.104.104 2.233.306 3.367A19.133 19.133 0 0014.8 9.717a20.395 20.395 0 00-2.28-2.59 3.636 3.636 0 00-2.525-.997c-.954 0-1.85.354-2.525.998a3.303 3.303 0 000 4.82 20.82 20.82 0 002.717 2.178 17.86 17.86 0 00-1.174 1.82.697.697 0 00.306.965.765.765 0 001.011-.292c.442-.787.945-1.529 1.5-2.224l.007-.008C15.56 9.771 21.73 7.292 27.79 8.072c4.456.574 8.622 2.88 11.375 6.315l.003.004c1.773 2.214 2.97 4.867 3.375 7.758a15.77 15.77 0 01-.595 6.976.707.707 0 00.496.89c.377.11.811-.094.933-.473.22-.686.395-1.384.526-2.09 1.188.193 2.37.292 3.527.292 1.97 0 3.571-1.53 3.571-3.408 0-1.88-1.602-3.409-3.571-3.409-1.156 0-2.339.1-3.526.292a17.314 17.314 0 00-3.088-7.094zm-1.278-5.99c.392-.374.914-.58 1.469-.58s1.077.206 1.469.58c.81.773.81 2.03 0 2.803a19.403 19.403 0 01-2.565 2.052 18.465 18.465 0 00-2.523-2.408 18.986 18.986 0 012.15-2.447zM23.714 6.582a17.891 17.891 0 01-.291-3.174c0-1.093.932-1.982 2.077-1.982s2.077.89 2.077 1.982c0 1.039-.098 2.103-.291 3.174l-.035-.003a19.309 19.309 0 00-3.537.003zM8.525 10.939a1.921 1.921 0 010-2.803c.392-.374.914-.58 1.469-.58s1.076.206 1.469.58a18.98 18.98 0 012.148 2.446 18.27 18.27 0 00-2.522 2.408 19.386 19.386 0 01-2.564-2.05zm35.578 11.693a20.523 20.523 0 013.326-.279c1.145 0 2.077.89 2.077 1.983 0 1.092-.932 1.982-2.077 1.982-1.088 0-2.204-.093-3.325-.278a17.196 17.196 0 00.002-3.383l-.003-.025z"/></g><defs><clipPath id="clip0"><path fill="#fff" d="M0 0h51v48.671H0z"/></clipPath></defs></svg>