<svg width="101" height="101" viewBox="0 0 101 101" fill="none" xmlns="http://www.w3.org/2000/svg"><g clip-path="url(#clip0)" fill="#FF9605"><path d="M25.396 51.986c.476 7.113 4.023 13.973 9.654 18.367l.025.02a.276.276 0 01.007.004c8.931 6.907 21.926 7.045 30.837 0l.006-.005.021-.016c6.695-5.265 10.418-13.772 9.604-22.273-1.126-11.772-10.802-21.507-22.639-22.634-14.883-1.418-28.517 11.564-27.515 26.537zm6.583-13.726l7.8 7.8H28.74a22.067 22.067 0 013.24-7.8zm17.132-9.924a22.72 22.72 0 012.87.006v12.9a9.252 9.252 0 00-2.93-.005l-.032.005v-12.9l.092-.006zm23.15 17.723h-11.04l7.8-7.8a22.067 22.067 0 013.24 7.8zm-3.24 16.682l-7.8-7.8h11.04a22.077 22.077 0 01-3.24 7.8zm-17.13 9.93c-.26.019-2.873.072-2.873-.013v-12.9a9.307 9.307 0 002.096.095c.29-.018.581-.048.868-.095v12.9a.304.304 0 01-.092.013zM48.94 44.29c3.918-1.051 7.975 2.188 7.975 6.21 0 3.468-2.931 6.41-6.401 6.416h-.03c-3.285-.006-6.11-2.642-6.38-5.909-.256-3.085 1.943-5.94 4.836-6.717zM58.096 56l9.111 9.112a22.492 22.492 0 01-2.095 2.095l-9.11-9.112A9.287 9.287 0 0058.096 56zm-2.095-13.097l9.111-9.112a22.311 22.311 0 012.095 2.096l-9.11 9.11A9.287 9.287 0 0056 42.905zm-13.097 2.095l-9.112-9.111a22.205 22.205 0 012.096-2.096l9.11 9.112a9.286 9.286 0 00-2.094 2.095zm2.095 13.097l-9.111 9.111a22.3 22.3 0 01-2.096-2.095L42.904 56a9.286 9.286 0 002.095 2.095zm1.06 3.124v11.042a22.083 22.083 0 01-7.8-3.241l7.8-7.8zm8.882 0l7.8 7.8a22.072 22.072 0 01-7.8 3.242V61.22zm17.755-10.04c-.007.268-.02.534-.038.802h-12.9c.003-.012.014-.098.019-.13a9.409 9.409 0 00-.019-2.833h12.9c.047.719.06 1.44.038 2.161zm-17.755-11.4V28.738a22.067 22.067 0 017.8 3.241l-7.8 7.8zm-8.882 0l-7.8-7.8a22.092 22.092 0 017.8-3.242V39.78zm-17.717 9.238h12.9a9.642 9.642 0 00-.107 1.92c.016.349.05.698.107 1.044h-12.9c-.06-.01-.05-1.415-.05-1.482 0-.227.032-1.215.05-1.482zM39.78 54.94l-7.8 7.8a22.067 22.067 0 01-3.242-7.8H39.78z"/><path d="M16.518 52.667a34.165 34.165 0 011.707-13.03 1.48 1.48 0 00-2.804-.946 36.771 36.771 0 00-1.364 5.342 41.762 41.762 0 00-6.985-.605A7.08 7.08 0 000 50.5a7.08 7.08 0 007.072 7.072c2.289 0 4.631-.205 6.983-.605a36.813 36.813 0 006.116 14.72 41.766 41.766 0 00-5.38 4.52 7.081 7.081 0 000 10.002c2.728 2.728 7.276 2.726 10.002 0a41.774 41.774 0 004.52-5.38 36.813 36.813 0 0014.72 6.116 41.744 41.744 0 00-.605 6.983A7.08 7.08 0 0050.5 101a7.08 7.08 0 007.072-7.072c0-2.29-.206-4.632-.605-6.985a36.826 36.826 0 0013.256-5.136c.497-.315.982-.644 1.463-.981a41.704 41.704 0 004.52 5.383c2.727 2.726 7.279 2.724 10.003 0a7.08 7.08 0 000-10.002 41.696 41.696 0 00-5.383-4.52 37.202 37.202 0 002.803-4.698 1.48 1.48 0 00-2.647-1.323c-6.415 12.842-20.795 20.487-35.02 18.584-14.968-2.003-27.211-14.254-29.211-29.214a34.318 34.318 0 01-.233-2.37zM79.037 74.04a38.828 38.828 0 015.08 4.258 4.12 4.12 0 010 5.818c-1.585 1.585-4.234 1.583-5.818 0a38.873 38.873 0 01-4.258-5.08c.03-.024.058-.05.088-.075a37.047 37.047 0 004.819-4.816l.089-.105zm-65.38-20.004a38.846 38.846 0 01-6.586.577A4.118 4.118 0 012.96 50.5a4.118 4.118 0 014.113-4.113c2.156 0 4.365.194 6.586.577-.078.02-.084 1.398-.09 1.513-.101 1.859-.09 3.705.09 5.56zm9.043 30.08c-1.588 1.588-4.232 1.586-5.818 0a4.12 4.12 0 010-5.817 38.8 38.8 0 015.078-4.257 37.383 37.383 0 004.997 4.996 38.81 38.81 0 01-4.257 5.079zm31.335 3.226c.383 2.221.577 4.431.577 6.586A4.118 4.118 0 0150.5 98.04a4.118 4.118 0 01-4.113-4.113c0-2.156.194-4.365.577-6.586l.06.004c2.297.214 4.66.218 6.975-.001l.037-.003zm26.794-58.03a41.717 41.717 0 005.38-4.519 7.08 7.08 0 000-10.002 7.026 7.026 0 00-5.001-2.071 7.026 7.026 0 00-5.001 2.071 41.712 41.712 0 00-4.52 5.38 36.813 36.813 0 00-14.72-6.116c.4-2.352.605-4.694.605-6.983A7.08 7.08 0 0050.5 0a7.08 7.08 0 00-7.072 7.072c0 2.29.206 4.635.606 6.987a36.91 36.91 0 00-14.727 6.105 41.803 41.803 0 00-4.514-5.373 7.027 7.027 0 00-5-2.071 7.03 7.03 0 00-5.002 2.071c-2.757 2.758-2.757 7.245 0 10.002a41.636 41.636 0 005.382 4.52 37.29 37.29 0 00-2.325 3.777 1.479 1.479 0 102.608 1.397 34.412 34.412 0 012.97-4.615l.015-.018c7.373-9.576 19.593-14.722 31.592-13.103 8.824 1.19 17.075 5.976 22.526 13.103l.008.01a33.886 33.886 0 016.682 16.099 34.19 34.19 0 01-1.178 14.477 1.48 1.48 0 00.982 1.847c.747.229 1.607-.197 1.848-.982a36.855 36.855 0 001.041-4.338c2.353.4 4.696.606 6.986.606 3.9 0 7.072-3.173 7.072-7.073a7.08 7.08 0 00-7.072-7.072c-2.289 0-4.631.206-6.983.605a36.818 36.818 0 00-6.116-14.72zm-2.53-12.429a4.087 4.087 0 012.909-1.204c1.099 0 2.132.427 2.909 1.204a4.12 4.12 0 010 5.818 38.817 38.817 0 01-5.079 4.257 37.377 37.377 0 00-4.996-4.997 38.902 38.902 0 014.257-5.078zm-31.335-3.225a38.833 38.833 0 01-.577-6.586A4.118 4.118 0 0150.5 2.96a4.118 4.118 0 014.113 4.113c0 2.156-.193 4.365-.577 6.586l-.068-.005a36.502 36.502 0 00-7.004.005zm-30.08 9.043a4.12 4.12 0 010-5.818 4.087 4.087 0 012.908-1.204c1.099 0 2.131.427 2.909 1.204a38.813 38.813 0 014.254 5.075 36.993 36.993 0 00-4.995 4.999 38.776 38.776 0 01-5.077-4.256zm70.458 24.263a38.84 38.84 0 016.586-.577A4.118 4.118 0 0198.04 50.5a4.118 4.118 0 01-4.113 4.113c-2.155 0-4.364-.193-6.585-.577a37.28 37.28 0 00.002-7.02l-.003-.052z"/></g><defs><clipPath id="clip0"><path fill="#fff" d="M0 0h101v101H0z"/></clipPath></defs></svg>