<svg width="36" height="36" viewBox="0 0 36 36" fill="none" xmlns="http://www.w3.org/2000/svg"><path d="M.636 17.358l8.295 3.095 3.21 10.326a.976.976 0 001.552.467l4.623-3.77a1.38 1.38 0 011.682-.046l8.34 6.054a.977.977 0 001.531-.59l6.11-29.388a.978.978 0 00-1.31-1.11L.627 15.527c-.84.324-.833 1.514.01 1.83zm10.988 1.447l16.212-9.984c.291-.18.591.215.34.447L14.799 21.704a2.774 2.774 0 00-.86 1.66l-.456 3.377c-.06.451-.694.496-.818.06l-1.753-6.16c-.2-.702.092-1.452.713-1.836z" fill="#fff"/></svg>