<svg width="36" height="36" viewBox="0 0 36 36" fill="none" xmlns="http://www.w3.org/2000/svg"><g clip-path="url(#clip0)" fill="#fff"><path d="M34.733 20.84c1.074-9.04-.516-14.748-3.384-17.33l.001-.001C26.721-.9 11.088-1.552 5.55 3.707c-2.487 2.572-3.363 6.348-3.459 11.022-.096 4.675-.21 13.434 7.952 15.81h.007l-.008 3.628s-.055 1.47.884 1.766c1.074.348 1.56-.335 4.9-4.325 5.587.485 9.877-.625 10.364-.787 1.128-.378 7.51-1.223 8.543-9.981zm-18.356 8.215s-3.535 4.409-4.635 5.553c-.36.372-.755.338-.749-.4 0-.485.027-6.024.027-6.024C4.102 26.2 4.51 18.743 4.585 14.84c.075-3.903.789-7.1 2.895-9.252 4.859-4.555 18.564-3.537 22.056-.255 4.269 3.785 2.75 14.477 2.759 14.841-.878 7.311-6.05 7.775-7.001 8.091-.406.135-4.179 1.106-8.916.79z"/><path d="M18.333 6.445c-.577 0-.577.9 0 .908 4.48.034 8.17 3.157 8.211 8.886 0 .604.885.597.878-.008h-.002c-.048-6.172-4.077-9.751-9.087-9.786z"/><path d="M24.227 15.29c-.014.597.87.625.877.02.073-3.403-2.025-6.206-5.968-6.502-.578-.042-.638.866-.062.908 3.42.26 5.221 2.593 5.152 5.574zm-.946 3.871c-.74-.429-1.495-.162-1.807.26l-.653.844c-.331.43-.95.372-.95.372-4.521-1.195-5.73-5.926-5.73-5.926s-.056-.64.358-.984l.816-.675c.408-.324.666-1.104.25-1.87-1.11-2.006-1.855-2.698-2.234-3.229-.4-.5-1-.612-1.623-.274h-.014c-1.298.759-2.718 2.18-2.264 3.642.776 1.542 2.201 6.457 6.743 10.171 2.134 1.757 5.512 3.557 6.946 3.972l.014.021c1.413.471 2.787-1.005 3.52-2.341v-.01c.326-.647.218-1.26-.258-1.66-.843-.822-2.115-1.73-3.114-2.313z"/><path d="M19.753 12.156c1.442.085 2.141.837 2.216 2.384.027.605.904.563.877-.042-.096-2.019-1.148-3.144-3.044-3.249-.578-.035-.632.873-.049.907z"/></g><defs><clipPath id="clip0"><path fill="#fff" d="M0 0h36v36H0z"/></clipPath></defs></svg>