<svg width="40" height="40" viewBox="0 0 40 40" fill="none" xmlns="http://www.w3.org/2000/svg"><path d="M12.887 23.393c1.585.238 3.52-.127 5.632-.253.395.09.789.149 1.198.149.417 0 .826-.06 1.235-.157 5.499.268 9.785 1.823 9.785-9.367C30.737 6.168 25.804 0 19.717 0c-6.086 0-11.02 6.168-11.02 13.765 0 6.108 1.169 8.482 3.066 9.308.35.164.73.26 1.124.32zM11.13 9.472c1.153 1.6 4.144 1.257 6.726-.767a9.833 9.833 0 001.69-1.696c.059.007.118.015.178.03.253.044.483.134.744.215.23.112.483.201.707.343.23.119.439.282.647.424.186.164.394.32.55.498.164.164.32.343.44.514.133.163.23.335.327.483.096.15.178.283.223.402l.178.365s-.022-.142-.066-.402c-.015-.134-.053-.283-.097-.461-.045-.179-.097-.387-.186-.596a5.708 5.708 0 00-.298-.677c-.111-.238-.275-.468-.431-.721-.186-.231-.358-.484-.58-.707-.21-.238-.462-.44-.708-.655-.23-.164-.476-.342-.736-.484.111-.23.2-.468.275-.692.923.417 1.868.945 2.62 1.697 2.76 2.76 1.673 5.967 3.801 3.846a5.72 5.72 0 00.826-1.034c.075 0 .149-.007.209.008.29.074.476.297.58.476.29.484.357 1.183.178 1.882-.267 1.042-.952 1.66-1.503 1.727l-.446.06-.119.438c-1.056 3.832-3.906 7.91-7.128 7.91s-6.064-4.078-7.128-7.91l-.119-.439-.446-.06c-.543-.074-1.236-.691-1.503-1.726-.179-.699-.112-1.398.178-1.882.067-.134.216-.305.417-.41zm16.868 14.926c-.863 1.473-1.867 2.715-3.192 3.4-2.738 1.399-4.776 2.544-4.776 2.544l-.008-.007v-.023l-.022.015-.022-.015v.023l-.008.007s-2.031-1.13-4.777-2.544c-1.324-.685-2.321-1.927-3.191-3.4-4.056 1.651-6.883 5.43-6.883 8.742V40H34.88v-6.86c0-3.304-2.834-7.09-6.882-8.742z" fill="#192239"/></svg>