<svg width="28" height="17" viewBox="0 0 28 17" fill="none" xmlns="http://www.w3.org/2000/svg">
<path d="M26.9013 1.70012H22.3576C22.1722 1.70012 21.9902 1.75074 21.831 1.84661C21.6719 1.94248 21.5415 2.08001 21.4538 2.24455C21.4538 2.24455 19.6416 5.60513 19.0595 6.73704C17.4936 9.782 16.4795 8.82608 16.4795 7.41289V2.54017C16.4795 2.13299 16.3189 1.74249 16.0329 1.45457C15.747 1.16665 15.3592 1.0049 14.9548 1.0049H11.5386C11.0733 0.97007 10.607 1.05558 10.1838 1.2533C9.76061 1.45103 9.39465 1.75441 9.12068 2.13463C9.12068 2.13463 10.8554 1.8522 10.8554 4.20579C10.8554 4.78941 10.8853 6.46834 10.9125 7.87653C10.9176 8.08404 10.8594 8.28814 10.7456 8.46127C10.6319 8.63441 10.4682 8.76823 10.2765 8.84469C10.0848 8.92114 9.87451 8.93654 9.67389 8.8888C9.47327 8.84106 9.29202 8.73249 9.15462 8.57774C7.75631 6.61943 6.59803 4.49822 5.70497 2.26018C5.62827 2.09276 5.5055 1.95101 5.3512 1.85174C5.19691 1.75247 5.01757 1.69985 4.83447 1.70012C3.84909 1.70012 1.87725 1.70012 0.706248 1.70012C0.592695 1.69934 0.480652 1.72633 0.379744 1.77877C0.278836 1.83122 0.192081 1.90754 0.126932 2.0012C0.0617823 2.09485 0.0201864 2.20303 0.00571759 2.31644C-0.00875121 2.42985 0.00433963 2.54511 0.0438655 2.6523C1.29739 6.11456 6.69719 16.9949 12.8605 16.9949H15.4547C15.7265 16.9949 15.9871 16.8861 16.1793 16.6926C16.3715 16.4991 16.4795 16.2366 16.4795 15.9629V14.3856C16.4795 14.1877 16.537 13.9942 16.6449 13.8288C16.7528 13.6635 16.9064 13.5335 17.0867 13.4549C17.2671 13.3764 17.4663 13.3527 17.6599 13.3867C17.8535 13.4208 18.0329 13.5111 18.1761 13.6466L21.2811 16.5842C21.56 16.848 21.9282 16.9949 22.3108 16.9949H26.3883C28.3548 16.9949 28.3548 15.6208 27.2826 14.5575C26.528 13.8092 23.8052 10.9193 23.8052 10.9193C23.572 10.676 23.4329 10.3568 23.4131 10.0194C23.3932 9.68189 23.4939 9.34839 23.697 9.07914C24.5771 7.9129 26.0166 6.00385 26.6271 5.18603C27.4616 4.0682 28.9719 1.70012 26.9013 1.70012Z" fill="#75787B"/>
</svg>
